<?xml version="1.0" encoding="UTF-8"?>
<svg xmlns="http://www.w3.org/2000/svg" xmlns:xlink="http://www.w3.org/1999/xlink" width="500pt" height="372.61pt" viewBox="0 0 500 372.61" version="1.1">
<defs>
<clipPath id="clip1">
  <path d="M 56 349 L 444 349 L 444 372.609375 L 56 372.609375 Z M 56 349 "/>
</clipPath>
<clipPath id="clip2">
  <path d="M 253.277344 137.710938 L 287.398438 137.710938 L 287.398438 171.84375 L 253.277344 171.84375 Z M 253.277344 137.710938 "/>
</clipPath>
<filter id="alpha" filterUnits="objectBoundingBox" x="0%" y="0%" width="100%" height="100%">
  <feColorMatrix type="matrix" in="SourceGraphic" values="0 0 0 0 1 0 0 0 0 1 0 0 0 0 1 0 0 0 1 0"/>
</filter>
<mask id="mask0">
  <g filter="url(#alpha)">
<rect x="0" y="0" width="500" height="372.61" style="fill:rgb(0%,0%,0%);fill-opacity:0.300003;stroke:none;"/>
  </g>
</mask>
<clipPath id="clip4">
  <path d="M 0.277344 0.710938 L 34.398438 0.710938 L 34.398438 34.84375 L 0.277344 34.84375 Z M 0.277344 0.710938 "/>
</clipPath>
<clipPath id="clip3">
  <rect width="35" height="35"/>
</clipPath>
<g id="surface7" clip-path="url(#clip3)">
<g clip-path="url(#clip4)" clip-rule="nonzero">
<path style=" stroke:none;fill-rule:nonzero;fill:rgb(0%,48.199463%,100%);fill-opacity:1;" d="M 21.246094 19.921875 C 20.0625 22.082031 17.34375 22.878906 15.183594 21.695313 C 13.023438 20.507813 12.242188 17.789063 13.425781 15.628906 C 14.609375 13.472656 17.316406 12.6875 19.480469 13.871094 C 21.636719 15.054688 22.433594 17.765625 21.246094 19.921875 M 34.121094 20.914063 L 34.398438 18.359375 L 32.863281 17.734375 C 32.855469 16.859375 32.78125 15.988281 32.636719 15.140625 L 34.035156 14.25 L 33.324219 11.78125 L 31.660156 11.796875 C 31.328125 10.988281 30.933594 10.214844 30.464844 9.484375 L 31.414063 8.125 L 29.808594 6.125 L 28.277344 6.765625 C 27.664063 6.15625 27.003906 5.597656 26.285156 5.09375 L 26.65625 3.46875 L 24.40625 2.230469 L 23.230469 3.421875 C 22.421875 3.074219 21.589844 2.824219 20.753906 2.632813 L 20.46875 0.996094 L 17.914063 0.710938 L 17.289063 2.246094 C 16.414063 2.25 15.554688 2.339844 14.695313 2.484375 L 13.808594 1.070313 L 11.339844 1.796875 L 11.351563 3.457031 C 10.554688 3.792969 9.78125 4.1875 9.039063 4.652344 L 7.679688 3.695313 L 5.683594 5.300781 L 6.320313 6.832031 C 5.726563 7.445313 5.152344 8.101563 4.648438 8.820313 L 3.035156 8.460938 L 1.796875 10.714844 L 2.976563 11.875 C 2.644531 12.695313 2.382813 13.519531 2.1875 14.367188 L 0.550781 14.640625 L 0.277344 17.191406 L 1.8125 17.828125 C 1.804688 18.695313 1.894531 19.566406 2.039063 20.410156 L 0.628906 21.300781 L 1.351563 23.769531 L 3.011719 23.769531 C 3.347656 24.566406 3.742188 25.339844 4.210938 26.070313 L 3.25 27.429688 L 4.855469 29.4375 L 6.398438 28.789063 C 7.007813 29.394531 7.671875 29.953125 8.390625 30.457031 L 8.019531 32.085938 L 10.269531 33.320313 L 11.445313 32.144531 C 12.253906 32.476563 13.085938 32.726563 13.921875 32.917969 L 14.203125 34.554688 L 16.757813 34.84375 L 17.382813 33.304688 C 18.25 33.300781 19.121094 33.214844 19.980469 33.070313 L 20.867188 34.480469 L 23.324219 33.757813 L 23.324219 32.09375 C 24.121094 31.757813 24.894531 31.363281 25.636719 30.898438 L 26.984375 31.859375 L 28.992188 30.253906 L 28.34375 28.722656 C 28.949219 28.109375 29.507813 27.449219 30.027344 26.730469 L 31.640625 27.089844 L 32.878906 24.839844 L 31.699219 23.675781 C 32.03125 22.855469 32.28125 22.03125 32.476563 21.195313 "/>
</g>
</g>
<clipPath id="clip5">
  <path d="M 289.894531 220.691406 L 292.410156 220.691406 L 292.410156 249.324219 L 289.894531 249.324219 Z M 289.894531 220.691406 "/>
</clipPath>
<mask id="mask1">
  <g filter="url(#alpha)">
<rect x="0" y="0" width="500" height="372.61" style="fill:rgb(0%,0%,0%);fill-opacity:0.300003;stroke:none;"/>
  </g>
</mask>
<clipPath id="clip7">
  <path d="M 0.894531 0.691406 L 3.410156 0.691406 L 3.410156 29.324219 L 0.894531 29.324219 Z M 0.894531 0.691406 "/>
</clipPath>
<clipPath id="clip6">
  <rect width="4" height="30"/>
</clipPath>
<g id="surface10" clip-path="url(#clip6)">
<g clip-path="url(#clip7)" clip-rule="nonzero">
<path style=" stroke:none;fill-rule:nonzero;fill:rgb(100%,100%,100%);fill-opacity:1;" d="M 1.484375 29.324219 C 1.445313 29.324219 1.40625 29.320313 1.367188 29.3125 C 1.097656 29.246094 0.933594 28.976563 0.996094 28.710938 C 1.03125 28.574219 4.21875 15.015625 0.910156 1.304688 C 0.84375 1.035156 1.007813 0.765625 1.277344 0.703125 C 1.542969 0.640625 1.816406 0.800781 1.878906 1.070313 C 5.246094 15.019531 2.003906 28.804688 1.96875 28.941406 C 1.914063 29.171875 1.710938 29.324219 1.484375 29.324219 "/>
</g>
</g>
<clipPath id="clip8">
  <path d="M 282.390625 205.042969 L 288.199219 205.042969 L 288.199219 213.808594 L 282.390625 213.808594 Z M 282.390625 205.042969 "/>
</clipPath>
<mask id="mask2">
  <g filter="url(#alpha)">
<rect x="0" y="0" width="500" height="372.61" style="fill:rgb(0%,0%,0%);fill-opacity:0.300003;stroke:none;"/>
  </g>
</mask>
<clipPath id="clip10">
  <path d="M 0.390625 0.0429688 L 6.199219 0.0429688 L 6.199219 8.808594 L 0.390625 8.808594 Z M 0.390625 0.0429688 "/>
</clipPath>
<clipPath id="clip9">
  <rect width="7" height="9"/>
</clipPath>
<g id="surface13" clip-path="url(#clip9)">
<g clip-path="url(#clip10)" clip-rule="nonzero">
<path style=" stroke:none;fill-rule:nonzero;fill:rgb(100%,100%,100%);fill-opacity:1;" d="M 5.699219 8.808594 C 5.507813 8.808594 5.328125 8.699219 5.242188 8.515625 C 3.957031 5.710938 2.363281 3.132813 0.5 0.859375 C 0.324219 0.644531 0.359375 0.328125 0.570313 0.15625 C 0.785156 -0.0195313 1.101563 0.0117188 1.277344 0.226563 C 3.191406 2.566406 4.832031 5.214844 6.152344 8.097656 C 6.265625 8.351563 6.15625 8.648438 5.90625 8.761719 C 5.839844 8.792969 5.765625 8.808594 5.699219 8.808594 "/>
</g>
</g>
<clipPath id="clip11">
  <path d="M 303.46875 242.269531 L 345.105469 242.269531 L 345.105469 357.285156 L 303.46875 357.285156 Z M 303.46875 242.269531 "/>
</clipPath>
<mask id="mask3">
  <g filter="url(#alpha)">
<rect x="0" y="0" width="500" height="372.61" style="fill:rgb(0%,0%,0%);fill-opacity:0.199997;stroke:none;"/>
  </g>
</mask>
<clipPath id="clip13">
  <path d="M 0.46875 0.269531 L 42.105469 0.269531 L 42.105469 115.285156 L 0.46875 115.285156 Z M 0.46875 0.269531 "/>
</clipPath>
<clipPath id="clip12">
  <rect width="43" height="116"/>
</clipPath>
<g id="surface16" clip-path="url(#clip12)">
<g clip-path="url(#clip13)" clip-rule="nonzero">
<path style=" stroke:none;fill-rule:nonzero;fill:rgb(0%,0%,0%);fill-opacity:1;" d="M 0.46875 115.285156 L 32.132813 110.46875 L 42.105469 4.257813 L 16.890625 0.269531 Z M 0.46875 115.285156 "/>
</g>
</g>
<clipPath id="clip14">
  <path d="M 116.9375 326.226563 L 134.054688 326.226563 L 134.054688 359.714844 L 116.9375 359.714844 Z M 116.9375 326.226563 "/>
</clipPath>
<mask id="mask4">
  <g filter="url(#alpha)">
<rect x="0" y="0" width="500" height="372.61" style="fill:rgb(0%,0%,0%);fill-opacity:0.199997;stroke:none;"/>
  </g>
</mask>
<clipPath id="clip16">
  <path d="M 0.9375 0.226563 L 18.054688 0.226563 L 18.054688 33.714844 L 0.9375 33.714844 Z M 0.9375 0.226563 "/>
</clipPath>
<clipPath id="clip15">
  <rect width="19" height="34"/>
</clipPath>
<g id="surface19" clip-path="url(#clip15)">
<g clip-path="url(#clip16)" clip-rule="nonzero">
<path style=" stroke:none;fill-rule:nonzero;fill:rgb(0%,0%,0%);fill-opacity:1;" d="M 9.75 33.714844 L 18.054688 28.863281 L 10.933594 6.480469 L 0.9375 0.226563 Z M 9.75 33.714844 "/>
</g>
</g>
<clipPath id="clip17">
  <path d="M 261.394531 337.492188 L 268.292969 337.492188 L 268.292969 371.300781 L 261.394531 371.300781 Z M 261.394531 337.492188 "/>
</clipPath>
<mask id="mask5">
  <g filter="url(#alpha)">
<rect x="0" y="0" width="500" height="372.61" style="fill:rgb(0%,0%,0%);fill-opacity:0.199997;stroke:none;"/>
  </g>
</mask>
<clipPath id="clip19">
  <path d="M 0.394531 0.492188 L 7.289063 0.492188 L 7.289063 34.300781 L 0.394531 34.300781 Z M 0.394531 0.492188 "/>
</clipPath>
<clipPath id="clip18">
  <rect width="8" height="35"/>
</clipPath>
<g id="surface18" clip-path="url(#clip18)">
<g clip-path="url(#clip19)" clip-rule="nonzero">
<path style=" stroke:none;fill-rule:nonzero;fill:rgb(0%,0%,0%);fill-opacity:1;" d="M 0.394531 34.300781 L 4.652344 30.066406 L 7.289063 9.128906 L 5.222656 0.492188 Z M 0.394531 34.300781 "/>
</g>
</g>
</defs>
<g id="surface1">
<path style=" stroke:none;fill-rule:nonzero;fill:rgb(92.199707%,92.199707%,92.199707%);fill-opacity:1;" d="M 0 327.695313 L 500 327.695313 L 500 327.449219 L 0 327.449219 Z M 0 327.695313 "/>
<path style=" stroke:none;fill-rule:nonzero;fill:rgb(92.199707%,92.199707%,92.199707%);fill-opacity:1;" d="M 428.222656 343.792969 L 449.902344 343.792969 L 449.902344 343.542969 L 428.222656 343.542969 Z M 428.222656 343.792969 "/>
<path style=" stroke:none;fill-rule:nonzero;fill:rgb(92.199707%,92.199707%,92.199707%);fill-opacity:1;" d="M 310.558594 338.605469 L 344.667969 338.605469 L 344.667969 338.355469 L 310.558594 338.355469 Z M 310.558594 338.605469 "/>
<path style=" stroke:none;fill-rule:nonzero;fill:rgb(92.199707%,92.199707%,92.199707%);fill-opacity:1;" d="M 396.585938 334.507813 L 441.109375 334.507813 L 441.109375 334.257813 L 396.585938 334.257813 Z M 396.585938 334.507813 "/>
<path style=" stroke:none;fill-rule:nonzero;fill:rgb(92.199707%,92.199707%,92.199707%);fill-opacity:1;" d="M 161.878906 339.546875 L 173.015625 339.546875 L 173.015625 339.296875 L 161.878906 339.296875 Z M 161.878906 339.546875 "/>
<path style=" stroke:none;fill-rule:nonzero;fill:rgb(92.199707%,92.199707%,92.199707%);fill-opacity:1;" d="M 114.585938 339.546875 L 152.972656 339.546875 L 152.972656 339.296875 L 114.585938 339.296875 Z M 114.585938 339.546875 "/>
<path style=" stroke:none;fill-rule:nonzero;fill:rgb(92.199707%,92.199707%,92.199707%);fill-opacity:1;" d="M 66.308594 335.324219 L 94.003906 335.324219 L 94.003906 335.074219 L 66.308594 335.074219 Z M 66.308594 335.324219 "/>
<path style=" stroke:none;fill-rule:nonzero;fill:rgb(92.199707%,92.199707%,92.199707%);fill-opacity:1;" d="M 43.914063 0.25 C 40.90625 0.25 38.457031 2.699219 38.457031 5.710938 L 38.457031 277.140625 C 38.457031 280.148438 40.90625 282.597656 43.914063 282.597656 L 237.015625 282.597656 C 240.023438 282.597656 242.472656 280.148438 242.472656 277.140625 L 242.472656 5.710938 C 242.472656 2.699219 240.023438 0.25 237.015625 0.25 Z M 237.015625 282.847656 L 43.914063 282.847656 C 40.769531 282.847656 38.207031 280.289063 38.207031 277.140625 L 38.207031 5.710938 C 38.207031 2.5625 40.769531 0 43.914063 0 L 237.015625 0 C 240.160156 0 242.722656 2.5625 242.722656 5.710938 L 242.722656 277.140625 C 242.722656 280.289063 240.160156 282.847656 237.015625 282.847656 "/>
<path style=" stroke:none;fill-rule:nonzero;fill:rgb(92.199707%,92.199707%,92.199707%);fill-opacity:1;" d="M 260.210938 0.25 C 257.203125 0.25 254.753906 2.699219 254.753906 5.710938 L 254.753906 277.140625 C 254.753906 280.148438 257.203125 282.597656 260.210938 282.597656 L 453.3125 282.597656 C 456.320313 282.597656 458.769531 280.148438 458.769531 277.140625 L 458.769531 5.710938 C 458.769531 2.699219 456.320313 0.25 453.3125 0.25 Z M 453.3125 282.847656 L 260.210938 282.847656 C 257.066406 282.847656 254.503906 280.289063 254.503906 277.140625 L 254.503906 5.710938 C 254.503906 2.5625 257.066406 0 260.210938 0 L 453.3125 0 C 456.457031 0 459.019531 2.5625 459.019531 5.710938 L 459.019531 277.140625 C 459.019531 280.289063 456.457031 282.847656 453.3125 282.847656 "/>
<path style=" stroke:none;fill-rule:nonzero;fill:rgb(92.199707%,92.199707%,92.199707%);fill-opacity:1;" d="M 127.277344 188.496094 C 98.496094 187.511719 75.964844 163.378906 76.949219 134.597656 C 77.9375 105.785156 102.070313 83.253906 130.847656 84.238281 C 159.628906 85.226563 182.160156 109.355469 181.175781 138.171875 C 180.1875 166.949219 156.054688 189.484375 127.277344 188.496094 M 216.070313 145.925781 L 216.523438 132.785156 L 208.453125 130.148438 C 208.121094 125.660156 207.371094 121.226563 206.304688 116.953125 L 213.140625 111.910156 L 208.496094 99.570313 L 200.039063 100.25 C 198.023438 96.257813 195.652344 92.464844 192.996094 88.898438 L 197.378906 81.589844 L 188.371094 71.976563 L 180.808594 75.847656 C 177.402344 72.953125 173.8125 70.332031 169.96875 68.015625 L 171.195313 59.621094 L 159.195313 54.175781 L 153.699219 60.617188 C 149.511719 59.257813 145.171875 58.242188 140.683594 57.566406 L 138.640625 49.339844 L 125.464844 48.890625 L 122.859375 56.957031 C 118.335938 57.320313 113.9375 58.039063 109.664063 59.109375 L 104.589844 52.304688 L 92.246094 56.914063 L 92.929688 65.375 C 88.9375 67.425781 85.140625 69.792969 81.578125 72.449219 L 74.300781 68.066406 L 64.652344 77.039063 L 68.523438 84.636719 C 65.632813 88.007813 63.007813 91.632813 60.722656 95.476563 L 52.332031 94.21875 L 46.851563 106.214844 L 53.332031 111.714844 C 51.972656 115.902344 50.917969 120.273438 50.28125 124.730469 L 42.015625 126.808594 L 41.566406 139.949219 L 49.667969 142.585938 C 50 147.109375 50.753906 151.511719 51.820313 155.78125 L 44.984375 160.824219 L 49.628906 173.167969 L 58.085938 172.484375 C 60.101563 176.476563 62.472656 180.273438 65.125 183.835938 L 60.742188 191.148438 L 69.753906 200.761719 L 77.3125 196.886719 C 80.6875 199.78125 84.3125 202.402344 88.152344 204.722656 L 86.894531 213.113281 L 98.890625 218.558594 L 104.425781 212.117188 C 108.613281 213.476563 112.949219 214.492188 117.441406 215.167969 L 119.484375 223.394531 L 132.660156 223.847656 L 135.261719 215.777344 C 139.785156 215.410156 144.1875 214.695313 148.457031 213.625 L 153.5 220.429688 L 165.84375 215.816406 L 165.195313 207.363281 C 169.1875 205.3125 172.949219 202.941406 176.546875 200.285156 L 183.824219 204.667969 L 193.46875 195.695313 L 189.597656 188.101563 C 192.492188 184.726563 195.117188 181.101563 197.398438 177.257813 L 205.792969 178.519531 L 211.269531 166.519531 L 204.792969 161.023438 C 206.152344 156.835938 207.203125 152.496094 207.84375 148.007813 "/>
<path style=" stroke:none;fill-rule:nonzero;fill:rgb(92.199707%,92.199707%,92.199707%);fill-opacity:1;" d="M 417.339844 83.339844 C 414.902344 80.730469 415.042969 76.636719 417.652344 74.195313 C 420.269531 71.757813 424.363281 71.898438 426.800781 74.507813 C 429.238281 77.117188 429.097656 81.214844 426.484375 83.652344 C 423.871094 86.09375 419.777344 85.949219 417.339844 83.339844 M 440.957031 102.472656 L 444.269531 99.375 L 442.945313 96.765625 C 443.960938 95.59375 444.859375 94.324219 445.640625 93.027344 L 448.535156 93.464844 L 450.414063 89.320313 L 448.183594 87.425781 C 448.667969 85.960938 449.015625 84.457031 449.234375 82.941406 L 452.089844 82.226563 L 452.234375 77.683594 L 449.445313 76.785156 C 449.320313 75.25 449.085938 73.734375 448.714844 72.230469 L 451.058594 70.484375 L 449.460938 66.230469 L 446.550781 66.460938 C 445.859375 65.109375 445.050781 63.800781 444.121094 62.542969 L 445.628906 60.039063 L 442.523438 56.714844 L 439.921875 58.050781 C 438.730469 57.03125 437.484375 56.136719 436.179688 55.355469 L 436.601563 52.457031 L 432.46875 50.570313 L 430.570313 52.800781 C 429.097656 52.328125 427.59375 51.980469 426.078125 51.757813 L 425.371094 48.914063 L 420.832031 48.75 L 419.925781 51.546875 C 418.394531 51.664063 416.871094 51.90625 415.378906 52.289063 L 413.640625 49.9375 L 409.378906 51.527344 L 409.617188 54.445313 C 408.265625 55.136719 406.941406 55.945313 405.699219 56.875 L 403.175781 55.367188 L 399.863281 58.460938 L 401.195313 61.082031 C 400.171875 62.265625 399.28125 63.523438 398.503906 64.820313 L 395.605469 64.386719 L 393.726563 68.527344 L 395.957031 70.425781 C 395.476563 71.890625 395.128906 73.390625 394.90625 74.90625 L 392.054688 75.621094 L 391.90625 80.164063 L 394.695313 81.0625 C 394.8125 82.589844 395.054688 84.113281 395.429688 85.617188 L 393.074219 87.355469 L 394.671875 91.609375 L 397.59375 91.386719 C 398.28125 92.738281 399.09375 94.046875 400.023438 95.304688 L 398.515625 97.808594 L 401.617188 101.132813 L 404.21875 99.800781 C 405.410156 100.8125 406.660156 101.710938 407.960938 102.492188 L 407.53125 105.382813 L 411.664063 107.265625 L 413.570313 105.046875 C 415.042969 105.519531 416.539063 105.859375 418.0625 106.089844 L 418.769531 108.933594 L 423.308594 109.097656 L 424.21875 106.300781 C 425.746094 106.183594 427.269531 105.941406 428.765625 105.558594 L 430.503906 107.910156 L 434.765625 106.320313 L 434.527344 103.402344 C 435.878906 102.714844 437.191406 101.910156 438.445313 100.972656 "/>
<path style=" stroke:none;fill-rule:nonzero;fill:rgb(92.199707%,92.199707%,92.199707%);fill-opacity:1;" d="M 251.535156 270.773438 C 237.882813 270.304688 227.21875 258.84375 227.683594 245.226563 C 228.152344 231.574219 239.574219 220.90625 253.230469 221.375 C 266.882813 221.84375 277.550781 233.265625 277.082031 246.921875 C 276.617188 260.535156 265.191406 271.242188 251.535156 270.773438 M 319.988281 237.382813 L 309.648438 230.242188 C 309.644531 230.234375 309.644531 230.226563 309.640625 230.21875 C 308.621094 226.460938 307.207031 222.84375 305.484375 219.445313 L 308.132813 209.050781 L 293.132813 192.984375 L 282.574219 194.917969 C 279.304688 192.964844 275.796875 191.3125 272.121094 190.035156 C 272.113281 190.03125 272.101563 190.03125 272.09375 190.027344 L 265.675781 179.21875 L 243.710938 178.464844 L 236.566406 188.804688 C 236.554688 188.808594 236.539063 188.8125 236.527344 188.816406 C 232.773438 189.839844 229.160156 191.246094 225.765625 192.96875 L 215.375 190.320313 L 199.308594 205.320313 L 201.238281 215.859375 C 201.238281 215.863281 201.234375 215.863281 201.234375 215.867188 C 199.242188 219.175781 197.625 222.683594 196.347656 226.359375 L 185.539063 232.777344 L 184.789063 254.742188 L 195.140625 261.890625 C 196.160156 265.675781 197.527344 269.28125 199.285156 272.710938 C 199.285156 272.710938 199.285156 272.710938 199.285156 272.714844 L 196.644531 283.082031 L 211.644531 299.140625 L 222.140625 297.222656 C 225.449219 299.179688 228.964844 300.835938 232.683594 302.113281 C 232.6875 302.117188 232.691406 302.117188 232.695313 302.117188 L 239.101563 312.914063 L 261.066406 313.664063 L 268.203125 303.332031 C 272.003906 302.308594 275.621094 300.898438 279.054688 299.171875 C 279.058594 299.171875 279.058594 299.171875 279.058594 299.171875 L 289.402344 301.804688 L 305.46875 286.808594 L 303.539063 276.269531 C 305.53125 272.960938 307.148438 269.449219 308.425781 265.773438 C 308.425781 265.773438 308.425781 265.769531 308.425781 265.769531 L 319.238281 259.351563 "/>
<path style=" stroke:none;fill-rule:nonzero;fill:rgb(92.199707%,92.199707%,92.199707%);fill-opacity:1;" d="M 336.691406 92.167969 C 321.992188 92.167969 309.789063 103.863281 309.28125 118.664063 C 308.765625 133.78125 320.644531 146.503906 335.761719 147.023438 C 343.085938 147.269531 350.074219 144.652344 355.429688 139.644531 C 360.78125 134.640625 363.867188 127.855469 364.121094 120.542969 C 364.636719 105.425781 352.757813 92.703125 337.640625 92.1875 C 337.324219 92.175781 337.003906 92.167969 336.691406 92.167969 M 336.726563 151.261719 C 336.359375 151.261719 335.988281 151.257813 335.617188 151.242188 C 318.171875 150.644531 304.464844 135.964844 305.0625 118.519531 C 305.660156 101.074219 320.363281 87.371094 337.785156 87.964844 C 355.230469 88.5625 368.9375 103.242188 368.339844 120.6875 C 368.050781 129.128906 364.488281 136.957031 358.3125 142.730469 C 352.402344 148.257813 344.773438 151.261719 336.726563 151.261719 M 352.242188 75.414063 L 352.25 75.414063 Z M 327.457031 170.226563 L 342.46875 170.742188 L 347.4375 163.542969 C 347.722656 163.132813 348.144531 162.835938 348.628906 162.703125 C 351.390625 161.960938 354.136719 160.910156 356.78125 159.578125 C 356.785156 159.578125 356.789063 159.574219 356.796875 159.570313 C 357.234375 159.355469 357.75 159.289063 358.253906 159.417969 L 365.292969 161.210938 L 376.269531 150.964844 L 374.953125 143.789063 C 374.863281 143.28125 374.957031 142.761719 375.222656 142.320313 C 376.671875 139.914063 377.898438 137.28125 378.875 134.484375 C 379.035156 133.988281 379.371094 133.570313 379.816406 133.3125 L 387.335938 128.84375 L 387.851563 113.835938 L 380.648438 108.859375 C 380.273438 108.601563 379.988281 108.226563 379.84375 107.789063 C 379.828125 107.738281 379.8125 107.679688 379.796875 107.621094 C 379.042969 104.863281 377.996094 102.152344 376.683594 99.566406 C 376.449219 99.109375 376.394531 98.585938 376.519531 98.089844 L 378.324219 91.011719 L 368.074219 80.03125 L 360.882813 81.351563 C 360.378906 81.441406 359.859375 81.347656 359.421875 81.085938 C 356.921875 79.59375 354.28125 78.359375 351.574219 77.421875 C 351.421875 77.367188 351.269531 77.296875 351.136719 77.214844 C 350.84375 77.035156 350.601563 76.789063 350.425781 76.492188 L 345.953125 68.964844 L 330.945313 68.449219 L 325.96875 75.652344 C 325.675781 76.082031 325.230469 76.386719 324.726563 76.507813 C 321.949219 77.269531 319.25 78.3125 316.671875 79.617188 C 316.214844 79.851563 315.691406 79.910156 315.195313 79.78125 L 308.121094 77.980469 L 297.144531 88.230469 L 298.457031 95.402344 C 298.539063 95.851563 298.472656 96.316406 298.269531 96.726563 C 298.238281 96.785156 298.207031 96.839844 298.171875 96.898438 C 296.722656 99.308594 295.492188 101.953125 294.519531 104.757813 C 294.355469 105.226563 294.03125 105.625 293.601563 105.878906 L 286.074219 110.347656 L 285.558594 125.355469 L 292.769531 130.335938 C 293.179688 130.621094 293.476563 131.039063 293.609375 131.523438 C 294.386719 134.398438 295.433594 137.128906 296.71875 139.640625 C 296.792969 139.785156 296.851563 139.9375 296.890625 140.09375 C 296.972656 140.433594 296.972656 140.789063 296.886719 141.128906 L 295.089844 148.183594 L 305.339844 159.15625 L 312.476563 157.851563 C 312.980469 157.761719 313.496094 157.855469 313.933594 158.109375 C 316.476563 159.617188 319.128906 160.847656 321.820313 161.777344 C 322.304688 161.929688 322.726563 162.257813 322.992188 162.710938 Z M 343.546875 175.003906 C 343.523438 175.003906 343.5 175.003906 343.476563 175.003906 L 326.160156 174.410156 C 325.441406 174.386719 324.78125 173.996094 324.414063 173.378906 L 319.753906 165.523438 C 317.273438 164.625 314.832031 163.492188 312.472656 162.148438 L 304.964844 163.519531 C 304.253906 163.652344 303.53125 163.410156 303.039063 162.882813 L 291.214844 150.222656 C 290.722656 149.695313 290.535156 148.953125 290.710938 148.257813 L 292.601563 140.847656 C 291.453125 138.5 290.492188 135.992188 289.742188 133.378906 L 282.210938 128.175781 C 281.617188 127.769531 281.273438 127.085938 281.300781 126.367188 L 281.894531 109.050781 C 281.917969 108.332031 282.304688 107.675781 282.925781 107.308594 L 290.789063 102.636719 C 291.722656 100.082031 292.855469 97.648438 294.160156 95.386719 L 292.78125 87.855469 C 292.652344 87.148438 292.890625 86.421875 293.417969 85.933594 L 306.082031 74.105469 C 306.609375 73.613281 307.347656 73.425781 308.046875 73.601563 L 315.480469 75.496094 C 317.886719 74.328125 320.382813 73.363281 322.929688 72.625 L 328.125 65.101563 C 328.535156 64.507813 329.203125 64.144531 329.933594 64.191406 L 347.253906 64.785156 C 347.972656 64.808594 348.628906 65.195313 348.996094 65.816406 L 353.667969 73.683594 C 356.148438 74.59375 358.574219 75.722656 360.894531 77.054688 L 368.449219 75.671875 C 369.15625 75.542969 369.878906 75.78125 370.371094 76.308594 L 382.195313 88.972656 C 382.6875 89.5 382.878906 90.238281 382.699219 90.9375 L 380.804688 98.371094 C 381.976563 100.777344 382.9375 103.277344 383.675781 105.820313 L 391.199219 111.015625 C 391.792969 111.425781 392.136719 112.105469 392.113281 112.824219 L 391.519531 130.144531 C 391.492188 130.863281 391.105469 131.519531 390.484375 131.886719 L 382.617188 136.558594 C 381.683594 139.113281 380.554688 141.542969 379.25 143.804688 L 380.628906 151.339844 C 380.761719 152.046875 380.519531 152.773438 379.992188 153.261719 L 367.328125 165.085938 C 366.804688 165.578125 366.066406 165.769531 365.367188 165.589844 L 357.964844 163.703125 C 355.527344 164.882813 353.015625 165.84375 350.476563 166.570313 L 345.285156 174.09375 C 344.890625 174.664063 344.242188 175.003906 343.546875 175.003906 "/>
<path style=" stroke:none;fill-rule:nonzero;fill:rgb(87.799072%,87.799072%,87.799072%);fill-opacity:1;" d="M 383.4375 50.371094 L 376.265625 48.445313 L 374.339844 41.273438 L 377.148438 38.464844 L 380.109375 44.601563 L 386.246094 47.5625 "/>
<path style=" stroke:none;fill-rule:nonzero;fill:rgb(87.799072%,87.799072%,87.799072%);fill-opacity:1;" d="M 383.882813 45.570313 C 385.191406 44.261719 385.191406 42.132813 383.882813 40.824219 C 382.578125 39.519531 380.457031 39.527344 379.148438 40.835938 L 382.71875 35.484375 L 387.503906 37.902344 L 388.550781 42.929688 "/>
<path style=" stroke:none;fill-rule:nonzero;fill:rgb(94.099426%,94.099426%,94.099426%);fill-opacity:1;" d="M 386.128906 43.328125 C 387.433594 42.019531 387.433594 39.890625 386.128906 38.585938 C 384.820313 37.277344 382.699219 37.285156 381.394531 38.59375 C 380.085938 39.898438 380.085938 42.011719 381.394531 43.316406 C 382.699219 44.625 384.820313 44.636719 386.128906 43.328125 M 376.582031 39.03125 L 381.839844 33.773438 L 389.011719 35.699219 L 390.9375 42.871094 L 385.679688 48.128906 L 378.507813 46.203125 "/>
<path style=" stroke:none;fill-rule:nonzero;fill:rgb(87.799072%,87.799072%,87.799072%);fill-opacity:1;" d="M 90.222656 241.757813 L 94.070313 240.722656 L 95.105469 236.875 L 93.597656 235.367188 L 92.007813 238.65625 L 88.714844 240.25 "/>
<path style=" stroke:none;fill-rule:nonzero;fill:rgb(87.799072%,87.799072%,87.799072%);fill-opacity:1;" d="M 89.980469 239.179688 C 89.28125 238.476563 89.28125 237.335938 89.980469 236.632813 C 90.683594 235.933594 91.820313 235.9375 92.523438 236.640625 L 90.609375 233.765625 L 88.039063 235.066406 L 87.476563 237.765625 "/>
<path style=" stroke:none;fill-rule:nonzero;fill:rgb(94.099426%,94.099426%,94.099426%);fill-opacity:1;" d="M 88.777344 237.976563 C 88.078125 237.273438 88.078125 236.132813 88.777344 235.429688 C 89.480469 234.730469 90.617188 234.734375 91.320313 235.4375 C 92.019531 236.136719 92.019531 237.269531 91.320313 237.972656 C 90.617188 238.671875 89.480469 238.675781 88.777344 237.976563 M 93.902344 235.671875 L 91.078125 232.847656 L 87.230469 233.882813 L 86.195313 237.730469 L 89.015625 240.554688 L 92.867188 239.519531 "/>
<path style=" stroke:none;fill-rule:nonzero;fill:rgb(94.099426%,94.099426%,94.099426%);fill-opacity:1;" d="M 76.363281 30.710938 L 79.558594 33.90625 C 80.390625 34.738281 81.75 34.738281 82.582031 33.90625 C 83.414063 33.074219 83.414063 31.714844 82.582031 30.882813 L 79.386719 27.6875 C 78.554688 26.855469 77.195313 26.855469 76.363281 27.6875 C 75.53125 28.519531 75.53125 29.878906 76.363281 30.710938 "/>
<path style=" stroke:none;fill-rule:nonzero;fill:rgb(87.799072%,87.799072%,87.799072%);fill-opacity:1;" d="M 74.113281 22.753906 C 76.574219 21.871094 79.242188 23.027344 80.074219 25.339844 C 80.902344 27.648438 79.578125 30.238281 77.117188 31.121094 C 74.65625 32.007813 71.988281 30.851563 71.15625 28.539063 C 70.328125 26.230469 71.648438 23.640625 74.113281 22.753906 "/>
<path style=" stroke:none;fill-rule:nonzero;fill:rgb(94.099426%,94.099426%,94.099426%);fill-opacity:1;" d="M 70.628906 28 L 71.09375 29.289063 L 80.597656 25.875 L 80.136719 24.585938 Z M 70.628906 28 "/>
<g clip-path="url(#clip1)" clip-rule="nonzero">
<path style=" stroke:none;fill-rule:nonzero;fill:rgb(96.099854%,96.099854%,96.099854%);fill-opacity:1;" d="M 443.890625 361.285156 C 443.890625 367.539063 357.082031 372.609375 250 372.609375 C 142.917969 372.609375 56.109375 367.539063 56.109375 361.285156 C 56.109375 355.03125 142.917969 349.964844 250 349.964844 C 357.082031 349.964844 443.890625 355.03125 443.890625 361.285156 "/>
</g>
<path style=" stroke:none;fill-rule:nonzero;fill:rgb(9.799194%,17.999268%,20.799255%);fill-opacity:1;" d="M 95.058594 63.839844 C 95.679688 66.5625 96.628906 68.402344 97.914063 69.363281 C 99.195313 70.320313 100.707031 70.605469 102.449219 70.207031 C 104.238281 69.800781 105.492188 68.902344 106.210938 67.515625 C 106.925781 66.125 106.941406 63.921875 106.257813 60.90625 C 105.679688 58.367188 104.746094 56.628906 103.453125 55.6875 C 102.164063 54.75 100.640625 54.480469 98.886719 54.878906 C 97.207031 55.261719 95.992188 56.164063 95.246094 57.585938 C 94.496094 59.007813 94.433594 61.089844 95.058594 63.839844 M 86.714844 65.695313 C 85.714844 61.292969 86.160156 57.585938 88.058594 54.570313 C 89.953125 51.5625 93.089844 49.558594 97.46875 48.5625 C 101.960938 47.542969 105.691406 47.960938 108.671875 49.820313 C 111.648438 51.679688 113.628906 54.777344 114.617188 59.121094 C 115.332031 62.273438 115.390625 64.980469 114.789063 67.238281 C 114.1875 69.496094 113.007813 71.417969 111.257813 72.996094 C 109.507813 74.574219 107.136719 75.703125 104.144531 76.382813 C 101.101563 77.074219 98.472656 77.164063 96.257813 76.648438 C 94.042969 76.132813 92.082031 74.964844 90.363281 73.148438 C 88.648438 71.332031 87.433594 68.847656 86.714844 65.695313 "/>
<path style=" stroke:none;fill-rule:nonzero;fill:rgb(9.799194%,17.999268%,20.799255%);fill-opacity:1;" d="M 126.097656 60.671875 C 126.492188 62.414063 127.136719 63.621094 128.035156 64.296875 C 128.929688 64.96875 129.910156 65.183594 130.976563 64.941406 C 132.054688 64.695313 132.847656 64.082031 133.355469 63.105469 C 133.863281 62.125 133.910156 60.726563 133.496094 58.914063 C 133.109375 57.21875 132.472656 56.039063 131.585938 55.367188 C 130.699219 54.699219 129.742188 54.484375 128.710938 54.71875 C 127.617188 54.964844 126.8125 55.589844 126.292969 56.59375 C 125.769531 57.59375 125.707031 58.953125 126.097656 60.671875 M 118.59375 62.398438 C 117.914063 59.414063 118.363281 56.730469 119.9375 54.339844 C 121.507813 51.949219 124.007813 50.367188 127.429688 49.589844 C 131.34375 48.699219 134.554688 49.160156 137.070313 50.976563 C 139.09375 52.441406 140.410156 54.507813 141.015625 57.183594 C 141.699219 60.191406 141.265625 62.878906 139.707031 65.25 C 138.148438 67.625 135.609375 69.210938 132.089844 70.011719 C 128.949219 70.722656 126.230469 70.507813 123.929688 69.351563 C 121.097656 67.917969 119.320313 65.597656 118.59375 62.398438 "/>
<path style=" stroke:none;fill-rule:nonzero;fill:rgb(9.799194%,17.999268%,20.799255%);fill-opacity:1;" d="M 152.195313 54.757813 C 152.546875 56.304688 153.128906 57.378906 153.949219 57.976563 C 154.769531 58.578125 155.679688 58.765625 156.671875 58.539063 C 157.542969 58.339844 158.191406 57.816406 158.617188 56.964844 C 159.042969 56.113281 159.0625 54.828125 158.671875 53.113281 C 158.308594 51.527344 157.738281 50.4375 156.957031 49.832031 C 156.175781 49.230469 155.34375 49.03125 154.460938 49.230469 C 153.503906 49.445313 152.789063 50.003906 152.320313 50.898438 C 151.855469 51.789063 151.8125 53.078125 152.195313 54.757813 M 148.585938 73.613281 L 142.453125 46.640625 L 149.464844 45.042969 L 150.121094 47.933594 C 150.8125 46.5 151.515625 45.476563 152.226563 44.863281 C 153.1875 44.035156 154.328125 43.472656 155.65625 43.171875 C 158.269531 42.578125 160.515625 43.117188 162.402344 44.792969 C 164.285156 46.46875 165.5625 48.777344 166.230469 51.722656 C 166.96875 54.972656 166.753906 57.632813 165.585938 59.695313 C 164.417969 61.761719 162.640625 63.066406 160.261719 63.605469 C 159.109375 63.867188 158.011719 63.910156 156.972656 63.734375 C 155.933594 63.558594 154.949219 63.167969 154.027344 62.566406 L 156.148438 71.894531 "/>
<path style=" stroke:none;fill-rule:nonzero;fill:rgb(9.799194%,17.999268%,20.799255%);fill-opacity:1;" d="M 169.433594 55.347656 L 176.710938 52.957031 C 177.21875 53.769531 177.789063 54.304688 178.429688 54.5625 C 179.066406 54.816406 179.847656 54.839844 180.765625 54.628906 C 181.773438 54.398438 182.503906 54.007813 182.957031 53.453125 C 183.3125 53.039063 183.4375 52.59375 183.328125 52.113281 C 183.207031 51.574219 182.832031 51.222656 182.199219 51.058594 C 181.746094 50.941406 180.613281 50.929688 178.804688 51.015625 C 176.101563 51.15625 174.199219 51.144531 173.097656 50.992188 C 171.996094 50.832031 170.996094 50.375 170.097656 49.613281 C 169.195313 48.851563 168.609375 47.882813 168.339844 46.707031 C 168.050781 45.417969 168.171875 44.226563 168.707031 43.125 C 169.242188 42.023438 170.117188 41.09375 171.324219 40.335938 C 172.53125 39.574219 174.242188 38.945313 176.449219 38.445313 C 178.78125 37.914063 180.539063 37.703125 181.730469 37.804688 C 182.921875 37.910156 183.976563 38.25 184.886719 38.828125 C 185.800781 39.410156 186.644531 40.28125 187.425781 41.445313 L 180.480469 43.761719 C 180.15625 43.175781 179.746094 42.785156 179.25 42.589844 C 178.570313 42.328125 177.8125 42.292969 176.980469 42.484375 C 176.132813 42.679688 175.550781 42.96875 175.234375 43.355469 C 174.914063 43.742188 174.804688 44.152344 174.902344 44.578125 C 175.011719 45.058594 175.339844 45.363281 175.886719 45.496094 C 176.429688 45.632813 177.546875 45.609375 179.238281 45.429688 C 181.789063 45.148438 183.734375 45.117188 185.0625 45.34375 C 186.390625 45.570313 187.480469 46.074219 188.339844 46.863281 C 189.195313 47.644531 189.746094 48.597656 190.003906 49.710938 C 190.257813 50.839844 190.167969 52.015625 189.730469 53.234375 C 189.289063 54.453125 188.410156 55.546875 187.085938 56.511719 C 185.765625 57.476563 183.839844 58.246094 181.3125 58.820313 C 177.742188 59.632813 175.085938 59.699219 173.339844 59.027344 C 171.59375 58.351563 170.289063 57.125 169.433594 55.347656 "/>
<path style=" stroke:none;fill-rule:nonzero;fill:rgb(9.799194%,17.999268%,20.799255%);fill-opacity:1;" d="M 194.25 51.503906 L 201.910156 51.460938 L 201.949219 58.234375 L 194.289063 58.277344 Z M 193.847656 30.613281 L 202.058594 30.566406 L 202.09375 36.871094 L 200.578125 49.542969 L 195.503906 49.570313 L 193.882813 36.917969 "/>
<path style=" stroke:none;fill-rule:nonzero;fill:rgb(9.799194%,17.999268%,20.799255%);fill-opacity:1;" d="M 109.269531 92.796875 C 109.101563 92.949219 108.613281 93.582031 107.914063 96.015625 C 106.996094 99.230469 107.5625 102.160156 108.644531 104.265625 C 108.851563 103.828125 108.992188 103.328125 109.09375 102.859375 C 110.128906 97.949219 109.828125 93.507813 109.269531 92.796875 M 115.855469 95.945313 C 115.597656 96.433594 115.160156 97.429688 114.515625 99.476563 C 113.65625 102.183594 113.652344 104.359375 114.128906 106.023438 C 114.164063 105.941406 114.195313 105.855469 114.222656 105.773438 C 115.398438 102.335938 115.972656 97.597656 115.855469 95.945313 M 123.027344 100.160156 C 123.023438 100.160156 122.460938 100.164063 121.199219 102.507813 C 119.753906 105.191406 119.382813 107.402344 120.070313 109.265625 C 120.15625 109.488281 120.253906 109.714844 120.371094 109.933594 C 120.90625 109.703125 121.363281 109.332031 121.691406 108.828125 C 123.09375 106.6875 123.765625 102.289063 123.242188 100.570313 C 123.136719 100.222656 123.027344 100.160156 123.027344 100.160156 M 128.679688 116.628906 C 128.621094 116.628906 128.558594 116.617188 128.5 116.597656 C 123.996094 114.851563 121.304688 113.148438 119.90625 111.105469 C 118.890625 111.308594 117.753906 111.171875 116.675781 110.65625 C 115.628906 110.160156 114.617188 109.289063 113.894531 108.035156 C 113.21875 108.558594 112.386719 108.699219 111.46875 108.410156 C 110.453125 108.09375 109.394531 107.238281 108.519531 106 C 107.960938 106.40625 107.386719 106.464844 106.964844 106.429688 C 103.992188 106.1875 99.964844 100.269531 99.675781 93.964844 C 99.660156 93.6875 99.875 93.453125 100.152344 93.441406 C 100.421875 93.417969 100.660156 93.640625 100.671875 93.917969 C 100.949219 99.902344 104.78125 105.25 107.046875 105.433594 C 107.414063 105.46875 107.722656 105.355469 107.976563 105.152344 C 106.621094 102.773438 105.914063 99.371094 106.953125 95.742188 C 107.8125 92.738281 108.574219 91.5625 109.488281 91.78125 C 111.210938 92.207031 110.984375 98.75 110.070313 103.066406 C 109.863281 104.046875 109.566406 104.75 109.226563 105.25 C 110.015625 106.414063 110.949219 107.199219 111.769531 107.457031 C 112.5 107.6875 113.042969 107.492188 113.441406 107.113281 C 112.65625 105.175781 112.496094 102.539063 113.5625 99.175781 C 114.964844 94.746094 115.53125 94.625 115.867188 94.554688 C 116.105469 94.503906 116.34375 94.582031 116.511719 94.773438 C 117.4375 95.816406 116.332031 102.695313 115.167969 106.097656 C 115.015625 106.539063 114.828125 106.925781 114.609375 107.253906 C 115.230469 108.472656 116.144531 109.300781 117.105469 109.757813 C 117.871094 110.121094 118.660156 110.253906 119.378906 110.1875 C 119.285156 109.996094 119.203125 109.804688 119.132813 109.609375 C 118.339844 107.464844 118.726563 104.984375 120.316406 102.03125 C 121.371094 100.074219 122.234375 99.160156 123.027344 99.160156 C 123.261719 99.160156 123.703125 99.246094 124.011719 99.820313 C 124.886719 101.429688 124.253906 106.738281 122.53125 109.375 C 122.121094 109.996094 121.5625 110.46875 120.914063 110.773438 C 122.253906 112.535156 124.796875 114.089844 128.859375 115.664063 C 129.117188 115.765625 129.246094 116.054688 129.144531 116.308594 C 129.070313 116.507813 128.878906 116.628906 128.679688 116.628906 "/>
<path style=" stroke:none;fill-rule:nonzero;fill:rgb(9.799194%,17.999268%,20.799255%);fill-opacity:1;" d="M 169.300781 157.859375 C 169.355469 158.015625 169.578125 158.429688 170.464844 159.25 C 171.953125 160.621094 173.304688 161.234375 174.597656 161.09375 C 174.703125 161.082031 174.808594 161.066406 174.917969 161.046875 C 174.847656 160.742188 174.699219 160.460938 174.484375 160.21875 C 173.074219 158.675781 169.984375 157.699219 169.300781 157.859375 M 165.808594 162.109375 C 166.144531 162.359375 166.628906 162.6875 167.316406 163.117188 C 168.671875 163.964844 169.882813 164.355469 170.914063 164.4375 C 169.257813 163.410156 167.09375 162.503906 165.808594 162.109375 M 166.699219 169.046875 C 165.171875 169.046875 163.570313 168.699219 162.136719 167.855469 C 161.898438 167.714844 161.820313 167.410156 161.957031 167.171875 C 162.097656 166.933594 162.402344 166.855469 162.640625 166.992188 C 166.210938 169.089844 170.820313 167.628906 171.769531 166.101563 C 171.878906 165.921875 171.980469 165.695313 171.917969 165.429688 C 170.507813 165.578125 168.769531 165.207031 166.785156 163.964844 C 164.242188 162.375 164.046875 161.902344 164.0625 161.523438 C 164.070313 161.300781 164.199219 161.101563 164.402344 161 C 165.398438 160.492188 169.90625 162.574219 171.785156 163.808594 C 172.03125 163.96875 172.238281 164.144531 172.40625 164.332031 C 173.238281 164.128906 173.882813 163.699219 174.3125 163.183594 C 174.605469 162.832031 174.800781 162.449219 174.898438 162.0625 C 174.832031 162.074219 174.765625 162.082031 174.699219 162.089844 C 173.101563 162.25 171.496094 161.5625 169.785156 159.984375 C 168.613281 158.898438 168.15625 158.148438 168.308594 157.558594 C 168.359375 157.367188 168.515625 157.03125 169.027344 156.902344 C 170.410156 156.558594 173.824219 158.015625 175.222656 159.546875 C 175.535156 159.890625 175.75 160.296875 175.863281 160.730469 C 177.167969 160.117188 178.546875 158.742188 180.183594 156.457031 C 180.34375 156.234375 180.652344 156.179688 180.878906 156.34375 C 181.105469 156.503906 181.15625 156.816406 180.996094 157.039063 C 179.105469 159.679688 177.53125 161.175781 175.949219 161.785156 C 175.886719 162.488281 175.597656 163.207031 175.078125 163.824219 C 174.574219 164.433594 173.835938 164.953125 172.898438 165.238281 C 172.996094 165.6875 172.90625 166.164063 172.617188 166.628906 C 171.777344 167.984375 169.359375 169.046875 166.699219 169.046875 "/>
<path style=" stroke:none;fill-rule:nonzero;fill:rgb(0%,48.199463%,100%);fill-opacity:1;" d="M 101.09375 181.996094 L 127.054688 136.429688 L 134.296875 175.964844 Z M 179.941406 167.675781 L 164.359375 170.503906 L 150.214844 93.292969 L 120.148438 98.753906 L 71.160156 185.753906 L 76.421875 214.460938 L 139.257813 203.046875 L 143.5625 226.527344 L 173.625 221.066406 L 169.320313 197.585938 L 184.902344 194.753906 "/>
<path style=" stroke:none;fill-rule:nonzero;fill:rgb(0%,48.199463%,100%);fill-opacity:1;" d="M 305.429688 88.039063 C 304.847656 82.707031 303.78125 77.96875 302.234375 73.820313 C 300.683594 69.679688 298.355469 65.613281 295.242188 61.632813 C 292.132813 57.652344 287.898438 54.195313 282.539063 51.265625 C 277.179688 48.339844 270.105469 46.300781 261.316406 45.152344 C 243.023438 42.769531 228.765625 46.019531 218.535156 54.894531 C 208.304688 63.769531 201.570313 80.773438 198.339844 105.90625 C 197.019531 116.128906 196.695313 125.574219 197.359375 134.25 C 198.023438 142.925781 199.613281 149.902344 202.136719 155.183594 C 205.589844 162.601563 210.472656 168.527344 216.789063 172.953125 C 223.101563 177.382813 231.75 180.316406 242.738281 181.746094 C 262.332031 184.300781 276.855469 180.539063 286.304688 170.460938 C 295.753906 160.382813 302.023438 143.347656 305.109375 119.359375 C 306.488281 108.65625 306.59375 98.21875 305.429688 88.039063 "/>
<path style=" stroke:none;fill-rule:nonzero;fill:rgb(9.799194%,17.999268%,20.799255%);fill-opacity:1;" d="M 251.765625 171.480469 C 249.359375 171.398438 246.800781 171.183594 244.160156 170.835938 C 235.003906 169.644531 227.921875 167.328125 223.105469 163.949219 C 218.355469 160.617188 214.757813 156.234375 212.113281 150.542969 L 212.0625 150.441406 C 210.140625 146.417969 208.886719 140.6875 208.328125 133.414063 C 207.722656 125.523438 208.03125 116.742188 209.246094 107.308594 C 212.816406 79.589844 220.1875 68.023438 225.746094 63.203125 C 232.222656 57.582031 240.964844 55.042969 252.472656 55.4375 C 254.832031 55.515625 257.328125 55.726563 259.894531 56.0625 C 267.28125 57.023438 273.125 58.660156 277.265625 60.917969 C 281.273438 63.109375 284.40625 65.628906 286.574219 68.40625 C 288.980469 71.480469 290.78125 74.597656 291.929688 77.671875 C 293.152344 80.945313 294.015625 84.832031 294.496094 89.230469 C 295.558594 98.539063 295.460938 108.183594 294.203125 117.953125 C 291.429688 139.492188 286.074219 154.625 278.28125 162.933594 C 272.503906 169.097656 263.828125 171.894531 251.769531 171.480469 C 251.765625 171.480469 251.765625 171.480469 251.765625 171.480469 "/>
<path style=" stroke:none;fill-rule:nonzero;fill:rgb(0%,48.199463%,100%);fill-opacity:1;" d="M 245.742188 100.605469 C 237.445313 100.320313 230.949219 93.367188 231.234375 85.070313 C 231.519531 76.765625 238.476563 70.269531 246.769531 70.554688 C 255.066406 70.839844 261.5625 77.792969 261.277344 86.097656 C 260.992188 94.394531 254.035156 100.890625 245.742188 100.605469 M 271.335938 88.335938 L 271.464844 84.546875 L 269.140625 83.789063 C 269.046875 82.492188 268.828125 81.214844 268.519531 79.984375 L 270.492188 78.53125 L 269.152344 74.972656 L 266.714844 75.167969 C 266.132813 74.019531 265.449219 72.925781 264.683594 71.898438 L 265.949219 69.789063 L 263.351563 67.019531 L 261.171875 68.136719 C 260.191406 67.300781 259.15625 66.546875 258.046875 65.878906 L 258.398438 63.457031 L 254.941406 61.886719 L 253.355469 63.746094 C 252.148438 63.355469 250.898438 63.058594 249.605469 62.867188 L 249.015625 60.496094 L 245.21875 60.363281 L 244.46875 62.691406 C 243.164063 62.796875 241.894531 63.003906 240.664063 63.308594 L 239.199219 61.347656 L 235.644531 62.679688 L 235.839844 65.117188 C 234.6875 65.707031 233.59375 66.390625 232.566406 67.15625 L 230.46875 65.894531 L 227.691406 68.480469 L 228.804688 70.667969 C 227.972656 71.640625 227.214844 72.683594 226.558594 73.792969 L 224.140625 73.429688 L 222.558594 76.886719 L 224.425781 78.472656 C 224.035156 79.679688 223.730469 80.941406 223.546875 82.226563 L 221.164063 82.824219 L 221.035156 86.613281 L 223.371094 87.371094 C 223.464844 88.675781 223.683594 89.945313 223.992188 91.175781 L 222.019531 92.628906 L 223.359375 96.1875 L 225.796875 95.992188 C 226.378906 97.140625 227.0625 98.234375 227.824219 99.261719 L 226.5625 101.371094 L 229.160156 104.140625 L 231.339844 103.023438 C 232.3125 103.859375 233.355469 104.613281 234.464844 105.28125 L 234.101563 107.703125 L 237.558594 109.269531 L 239.152344 107.414063 C 240.359375 107.804688 241.613281 108.097656 242.90625 108.292969 L 243.496094 110.664063 L 247.292969 110.796875 L 248.042969 108.46875 C 249.347656 108.363281 250.613281 108.15625 251.847656 107.847656 L 253.300781 109.808594 L 256.859375 108.480469 L 256.671875 106.042969 C 257.820313 105.453125 258.90625 104.769531 259.941406 104.003906 L 262.039063 105.265625 L 264.820313 102.679688 L 263.703125 100.492188 C 264.539063 99.519531 265.296875 98.472656 265.953125 97.367188 L 268.371094 97.730469 L 269.953125 94.269531 L 268.085938 92.6875 C 268.476563 91.480469 268.78125 90.230469 268.964844 88.933594 "/>
<g clip-path="url(#clip2)" clip-rule="nonzero">
<use xlink:href="#surface7" transform="matrix(1,0,0,1,253,137)" mask="url(#mask0)"/>
</g>
<path style=" stroke:none;fill-rule:nonzero;fill:rgb(100%,100%,100%);fill-opacity:1;" d="M 281.558594 124.320313 C 277.621094 124.1875 274.546875 120.882813 274.683594 116.960938 C 274.816406 113.023438 278.109375 109.949219 282.046875 110.082031 C 285.980469 110.21875 289.058594 113.511719 288.921875 117.445313 C 288.789063 121.371094 285.496094 124.457031 281.558594 124.320313 M 301.289063 114.699219 L 298.308594 112.640625 C 298.308594 112.636719 298.308594 112.632813 298.308594 112.632813 C 298.011719 111.550781 297.605469 110.507813 297.109375 109.527344 L 297.871094 106.53125 L 293.546875 101.898438 L 290.503906 102.457031 C 289.5625 101.894531 288.550781 101.417969 287.492188 101.050781 C 287.488281 101.050781 287.488281 101.050781 287.484375 101.046875 L 285.632813 97.929688 L 279.304688 97.714844 L 277.242188 100.695313 L 277.230469 100.699219 C 276.152344 100.992188 275.109375 101.398438 274.128906 101.894531 L 271.136719 101.132813 L 266.503906 105.457031 L 267.0625 108.492188 C 267.058594 108.492188 267.058594 108.496094 267.058594 108.496094 C 266.484375 109.449219 266.019531 110.460938 265.652344 111.519531 L 262.535156 113.371094 L 262.320313 119.703125 L 265.300781 121.761719 C 265.597656 122.851563 265.992188 123.890625 266.496094 124.882813 L 265.738281 127.867188 L 270.058594 132.5 L 273.085938 131.945313 C 274.039063 132.511719 275.054688 132.988281 276.125 133.355469 C 276.125 133.355469 276.128906 133.355469 276.128906 133.355469 L 277.976563 136.46875 L 284.304688 136.683594 L 286.363281 133.707031 C 287.457031 133.410156 288.5 133.007813 289.492188 132.507813 L 292.472656 133.265625 L 297.105469 128.945313 L 296.546875 125.90625 C 297.121094 124.953125 297.589844 123.941406 297.953125 122.882813 L 297.957031 122.882813 L 301.074219 121.027344 "/>
<path style=" stroke:none;fill-rule:nonzero;fill:rgb(0%,48.199463%,100%);fill-opacity:1;" d="M 317.953125 57.6875 C 317.695313 56.230469 318.664063 54.839844 320.117188 54.582031 C 321.570313 54.320313 322.960938 55.289063 323.222656 56.742188 C 323.480469 58.199219 322.515625 59.585938 321.058594 59.847656 C 319.605469 60.109375 318.214844 59.140625 317.953125 57.6875 M 323.042969 64.171875 L 323.5625 62.914063 C 323.5625 62.914063 323.566406 62.914063 323.566406 62.914063 C 323.941406 62.722656 324.289063 62.488281 324.609375 62.230469 L 325.773438 62.273438 L 327.132813 60.320313 L 326.6875 59.246094 C 326.820313 58.859375 326.914063 58.449219 326.96875 58.03125 L 326.96875 58.027344 L 327.964844 57.101563 L 327.546875 54.761719 L 326.289063 54.242188 C 326.289063 54.238281 326.289063 54.238281 326.289063 54.238281 C 326.09375 53.863281 325.863281 53.511719 325.605469 53.191406 L 325.648438 52.03125 L 323.695313 50.671875 L 322.625 51.117188 C 322.625 51.117188 322.625 51.113281 322.621094 51.113281 C 322.230469 50.980469 321.820313 50.886719 321.402344 50.835938 L 320.476563 49.839844 L 318.136719 50.257813 L 317.613281 51.515625 C 317.238281 51.707031 316.886719 51.9375 316.5625 52.199219 L 315.40625 52.15625 L 314.046875 54.109375 L 314.488281 55.175781 C 314.355469 55.570313 314.261719 55.980469 314.210938 56.402344 L 313.214844 57.328125 L 313.632813 59.667969 L 314.886719 60.1875 C 315.082031 60.566406 315.3125 60.917969 315.574219 61.242188 L 315.527344 62.398438 L 317.480469 63.757813 L 318.554688 63.3125 C 318.949219 63.449219 319.355469 63.539063 319.773438 63.59375 L 320.699219 64.589844 "/>
<path style=" stroke:none;fill-rule:nonzero;fill:rgb(0%,48.199463%,100%);fill-opacity:1;" d="M 295.605469 57.539063 L 294.84375 56.894531 C 296.171875 55.320313 298.054688 53.328125 300.851563 51.863281 L 301.316406 52.75 C 298.332031 54.3125 296.421875 56.574219 295.605469 57.539063 "/>
<path style=" stroke:none;fill-rule:nonzero;fill:rgb(0%,48.199463%,100%);fill-opacity:1;" d="M 303.589844 51.851563 L 303.195313 50.929688 C 306.980469 49.308594 310.929688 48.679688 314.933594 49.050781 L 314.84375 50.046875 C 311.003906 49.679688 307.21875 50.292969 303.589844 51.851563 "/>
<path style=" stroke:none;fill-rule:nonzero;fill:rgb(0%,48.199463%,100%);fill-opacity:1;" d="M 301.703125 58.769531 L 300.878906 58.207031 C 302.929688 55.1875 306.988281 52.5625 310.746094 51.816406 L 310.941406 52.796875 C 307.421875 53.496094 303.621094 55.953125 301.703125 58.769531 "/>
<path style=" stroke:none;fill-rule:nonzero;fill:rgb(100%,100%,100%);fill-opacity:1;" d="M 224.367188 127.714844 C 222.546875 130.457031 221.90625 133.742188 222.5625 136.972656 C 223.21875 140.195313 225.089844 142.976563 227.835938 144.792969 C 233.5 148.546875 241.164063 146.992188 244.914063 141.332031 C 248.667969 135.667969 247.117188 128 241.453125 124.242188 C 235.789063 120.492188 228.125 122.046875 224.367188 127.714844 M 234.625 147.839844 C 232.097656 147.839844 229.542969 147.125 227.28125 145.628906 C 224.316406 143.660156 222.289063 140.65625 221.582031 137.171875 C 220.875 133.683594 221.566406 130.128906 223.53125 127.160156 C 227.597656 121.035156 235.886719 119.355469 242.007813 123.410156 C 248.128906 127.472656 249.808594 135.761719 245.75 141.882813 C 243.1875 145.746094 238.945313 147.839844 234.625 147.839844 M 229.707031 151.074219 C 229.753906 151.074219 229.800781 151.082031 229.847656 151.097656 C 230.917969 151.410156 232.03125 151.617188 233.15625 151.714844 C 233.277344 151.722656 233.390625 151.777344 233.476563 151.863281 L 235.511719 153.960938 L 241.414063 152.765625 L 242.472656 150.03125 C 242.515625 149.917969 242.601563 149.824219 242.707031 149.769531 C 243.710938 149.246094 244.65625 148.625 245.523438 147.917969 C 245.613281 147.84375 245.71875 147.792969 245.847656 147.808594 L 249.316406 147.859375 L 252.644531 142.839844 L 251.238281 139.65625 C 251.191406 139.550781 251.183594 139.429688 251.21875 139.316406 C 251.535156 138.222656 251.742188 137.109375 251.835938 136.003906 C 251.84375 135.882813 251.898438 135.769531 251.984375 135.6875 L 254.082031 133.648438 L 252.886719 127.746094 L 250.160156 126.691406 C 250.042969 126.644531 249.949219 126.558594 249.894531 126.445313 C 249.371094 125.445313 248.75 124.503906 248.042969 123.644531 C 247.96875 123.550781 247.925781 123.4375 247.929688 123.316406 L 247.980469 119.84375 L 242.960938 116.515625 L 239.785156 117.917969 C 239.679688 117.964844 239.558594 117.972656 239.445313 117.941406 C 238.359375 117.625 237.242188 117.417969 236.121094 117.324219 C 236.003906 117.316406 235.890625 117.261719 235.804688 117.175781 L 233.773438 115.078125 L 227.871094 116.273438 L 226.8125 119.003906 C 226.769531 119.113281 226.683594 119.210938 226.578125 119.265625 C 225.582031 119.78125 224.632813 120.40625 223.761719 121.117188 C 223.667969 121.191406 223.546875 121.246094 223.433594 121.234375 L 219.964844 121.179688 L 216.640625 126.199219 L 218.039063 129.378906 C 218.101563 129.515625 218.097656 129.671875 218.03125 129.804688 C 217.75 130.804688 217.542969 131.917969 217.449219 133.039063 C 217.4375 133.15625 217.386719 133.269531 217.300781 133.355469 L 215.199219 135.390625 L 216.398438 141.292969 L 219.121094 142.347656 C 219.242188 142.394531 219.34375 142.488281 219.394531 142.605469 C 219.914063 143.597656 220.535156 144.539063 221.238281 145.398438 C 221.316406 145.488281 221.355469 145.605469 221.355469 145.722656 L 221.300781 149.195313 L 226.320313 152.523438 L 229.503906 151.117188 C 229.570313 151.089844 229.636719 151.074219 229.707031 151.074219 M 235.34375 155.007813 C 235.210938 155.007813 235.078125 154.953125 234.984375 154.855469 L 232.886719 152.691406 C 231.820313 152.59375 230.761719 152.394531 229.742188 152.105469 L 226.472656 153.546875 C 226.320313 153.617188 226.140625 153.601563 225.996094 153.507813 L 220.519531 149.878906 C 220.378906 149.78125 220.296875 149.625 220.296875 149.453125 L 220.351563 145.890625 C 219.6875 145.0625 219.09375 144.164063 218.585938 143.214844 L 215.78125 142.125 C 215.621094 142.0625 215.503906 141.925781 215.472656 141.757813 L 214.164063 135.320313 C 214.132813 135.152344 214.1875 134.980469 214.308594 134.863281 L 216.46875 132.765625 C 216.570313 131.703125 216.765625 130.648438 217.054688 129.617188 L 215.613281 126.355469 C 215.546875 126.195313 215.558594 126.019531 215.652344 125.875 L 219.28125 120.398438 C 219.378906 120.257813 219.511719 120.171875 219.707031 120.175781 L 223.269531 120.230469 C 224.105469 119.5625 225.003906 118.96875 225.949219 118.464844 L 227.035156 115.660156 C 227.097656 115.5 227.238281 115.382813 227.402344 115.351563 L 233.839844 114.042969 C 234.007813 114.011719 234.179688 114.066406 234.300781 114.1875 L 236.394531 116.34375 C 237.457031 116.445313 238.515625 116.640625 239.546875 116.929688 L 242.808594 115.492188 C 242.964844 115.421875 243.144531 115.4375 243.285156 115.53125 L 248.761719 119.160156 C 248.902344 119.257813 248.988281 119.414063 248.984375 119.585938 L 248.929688 123.152344 C 249.597656 123.980469 250.191406 124.878906 250.695313 125.824219 L 253.503906 126.914063 C 253.660156 126.976563 253.777344 127.113281 253.8125 127.28125 L 255.117188 133.71875 C 255.152344 133.886719 255.097656 134.058594 254.976563 134.179688 L 252.8125 136.273438 C 252.714844 137.324219 252.519531 138.382813 252.226563 139.417969 L 253.671875 142.6875 C 253.738281 142.84375 253.722656 143.023438 253.628906 143.164063 L 250 148.640625 C 249.90625 148.78125 249.757813 148.851563 249.574219 148.863281 L 246.011719 148.808594 C 245.183594 149.472656 244.285156 150.0625 243.339844 150.566406 L 242.246094 153.382813 C 242.183594 153.539063 242.046875 153.65625 241.878906 153.691406 L 235.441406 154.996094 C 235.410156 155.003906 235.375 155.007813 235.34375 155.007813 "/>
<path style=" stroke:none;fill-rule:nonzero;fill:rgb(0%,48.199463%,100%);fill-opacity:1;" d="M 346.40625 165.980469 L 385.164063 130.652344 L 379.851563 170.492188 Z M 425.828125 176.699219 L 410.132813 174.578125 L 420.511719 96.769531 L 390.230469 92.683594 L 316.777344 160.3125 L 312.917969 189.242188 L 376.210938 197.78125 L 373.054688 221.445313 L 403.335938 225.53125 L 406.492188 201.871094 L 422.1875 203.988281 "/>
<path style=" stroke:none;fill-rule:nonzero;fill:rgb(9.799194%,17.999268%,20.799255%);fill-opacity:1;" d="M 394.132813 224.789063 C 394.105469 224.789063 394.074219 224.785156 394.042969 224.78125 C 393.773438 224.730469 393.59375 224.472656 393.640625 224.199219 L 416.96875 96.269531 C 417.015625 96 417.28125 95.828125 417.550781 95.867188 C 417.820313 95.917969 418 96.179688 417.949219 96.449219 L 394.625 224.378906 C 394.582031 224.621094 394.371094 224.789063 394.132813 224.789063 "/>
<path style=" stroke:none;fill-rule:nonzero;fill:rgb(9.799194%,17.999268%,20.799255%);fill-opacity:1;" d="M 414.832031 98.417969 C 414.816406 98.871094 414.4375 99.226563 413.984375 99.210938 C 413.53125 99.195313 413.175781 98.816406 413.191406 98.363281 C 413.207031 97.910156 413.589844 97.554688 414.039063 97.570313 C 414.492188 97.585938 414.847656 97.96875 414.832031 98.417969 "/>
<path style=" stroke:none;fill-rule:nonzero;fill:rgb(9.799194%,17.999268%,20.799255%);fill-opacity:1;" d="M 411.5 115.71875 C 411.484375 116.171875 411.105469 116.527344 410.652344 116.511719 C 410.199219 116.492188 409.84375 116.113281 409.859375 115.660156 C 409.875 115.210938 410.257813 114.855469 410.707031 114.871094 C 411.160156 114.886719 411.515625 115.265625 411.5 115.71875 "/>
<path style=" stroke:none;fill-rule:nonzero;fill:rgb(9.799194%,17.999268%,20.799255%);fill-opacity:1;" d="M 408.164063 133.019531 C 408.152344 133.472656 407.769531 133.824219 407.320313 133.8125 C 406.867188 133.796875 406.511719 133.414063 406.527344 132.964844 C 406.542969 132.511719 406.921875 132.15625 407.375 132.171875 C 407.828125 132.1875 408.183594 132.566406 408.164063 133.019531 "/>
<path style=" stroke:none;fill-rule:nonzero;fill:rgb(9.799194%,17.999268%,20.799255%);fill-opacity:1;" d="M 401.613281 151.03125 C 401.597656 151.484375 401.21875 151.835938 400.765625 151.820313 C 400.3125 151.804688 399.960938 151.425781 399.976563 150.972656 C 399.988281 150.523438 400.371094 150.167969 400.820313 150.183594 C 401.273438 150.199219 401.628906 150.578125 401.613281 151.03125 "/>
<path style=" stroke:none;fill-rule:nonzero;fill:rgb(9.799194%,17.999268%,20.799255%);fill-opacity:1;" d="M 401.5 167.621094 C 401.484375 168.074219 401.105469 168.429688 400.652344 168.414063 C 400.203125 168.398438 399.847656 168.019531 399.863281 167.566406 C 399.878906 167.113281 400.257813 166.757813 400.710938 166.773438 C 401.160156 166.789063 401.515625 167.171875 401.5 167.621094 "/>
<path style=" stroke:none;fill-rule:nonzero;fill:rgb(9.799194%,17.999268%,20.799255%);fill-opacity:1;" d="M 398.167969 184.921875 C 398.152344 185.375 397.773438 185.730469 397.320313 185.714844 C 396.871094 185.695313 396.515625 185.320313 396.53125 184.863281 C 396.546875 184.414063 396.925781 184.058594 397.378906 184.074219 C 397.828125 184.089844 398.183594 184.472656 398.167969 184.921875 "/>
<path style=" stroke:none;fill-rule:nonzero;fill:rgb(9.799194%,17.999268%,20.799255%);fill-opacity:1;" d="M 394.835938 202.222656 C 394.820313 202.675781 394.441406 203.03125 393.988281 203.015625 C 393.539063 202.996094 393.183594 202.617188 393.199219 202.164063 C 393.214844 201.714844 393.59375 201.359375 394.046875 201.375 C 394.496094 201.390625 394.851563 201.769531 394.835938 202.222656 "/>
<path style=" stroke:none;fill-rule:nonzero;fill:rgb(9.799194%,17.999268%,20.799255%);fill-opacity:1;" d="M 391.503906 219.523438 C 391.488281 219.976563 391.109375 220.332031 390.65625 220.316406 C 390.203125 220.300781 389.851563 219.921875 389.867188 219.46875 C 389.882813 219.015625 390.261719 218.660156 390.714844 218.675781 C 391.164063 218.691406 391.519531 219.070313 391.503906 219.523438 "/>
<path style=" stroke:none;fill-rule:nonzero;fill:rgb(9.799194%,17.999268%,20.799255%);fill-opacity:1;" d="M 400.792969 151.503906 C 400.5625 151.503906 400.355469 151.34375 400.304688 151.105469 C 400.246094 150.839844 400.417969 150.570313 400.691406 150.515625 L 403.171875 149.980469 C 403.445313 149.925781 403.710938 150.09375 403.765625 150.363281 C 403.824219 150.636719 403.652344 150.898438 403.382813 150.960938 L 400.898438 151.492188 C 400.863281 151.5 400.828125 151.503906 400.792969 151.503906 "/>
<path style=" stroke:none;fill-rule:nonzero;fill:rgb(9.799194%,17.999268%,20.799255%);fill-opacity:1;" d="M 409.085938 142.289063 C 409.085938 142.289063 406.847656 148.117188 406.09375 151.648438 C 405.339844 155.183594 405.296875 163.074219 405.296875 163.074219 "/>
<path style=" stroke:none;fill-rule:nonzero;fill:rgb(9.799194%,17.999268%,20.799255%);fill-opacity:1;" d="M 405.296875 163.574219 L 405.292969 163.574219 C 405.015625 163.574219 404.792969 163.347656 404.796875 163.070313 C 404.796875 162.746094 404.847656 155.089844 405.605469 151.546875 C 406.359375 148.015625 408.527344 142.351563 408.617188 142.109375 C 408.71875 141.851563 409.003906 141.726563 409.265625 141.824219 C 409.523438 141.921875 409.652344 142.210938 409.550781 142.46875 C 409.527344 142.527344 407.320313 148.304688 406.582031 151.753906 C 405.847656 155.195313 405.796875 163 405.796875 163.078125 C 405.792969 163.351563 405.570313 163.574219 405.296875 163.574219 "/>
<path style=" stroke:none;fill-rule:nonzero;fill:rgb(9.799194%,17.999268%,20.799255%);fill-opacity:1;" d="M 222.453125 249.890625 C 223.839844 227.488281 221.285156 186.765625 263.398438 192.15625 C 308.53125 197.929688 295.617188 250.710938 295.617188 250.710938 "/>
<path style=" stroke:none;fill-rule:nonzero;fill:rgb(100%,100%,100%);fill-opacity:1;" d="M 269.890625 218.050781 C 269.890625 228.195313 261.660156 236.425781 251.515625 236.425781 C 241.363281 236.425781 233.136719 228.195313 233.136719 218.050781 C 233.136719 207.902344 241.363281 199.675781 251.515625 199.675781 C 261.660156 199.675781 269.890625 207.902344 269.890625 218.050781 "/>
<path style=" stroke:none;fill-rule:nonzero;fill:rgb(9.799194%,17.999268%,20.799255%);fill-opacity:1;" d="M 253.925781 199.703125 C 245.222656 198.214844 235.917969 204.632813 235 211.132813 L 269.507813 214.304688 C 268.289063 206.894531 260.832031 200.882813 253.925781 199.703125 "/>
<path style=" stroke:none;fill-rule:nonzero;fill:rgb(9.799194%,17.999268%,20.799255%);fill-opacity:1;" d="M 265.574219 217.59375 C 265.328125 222.394531 262.710938 226.164063 259.726563 226.011719 C 256.746094 225.859375 254.527344 221.839844 254.773438 217.035156 C 255.019531 212.234375 257.636719 208.464844 260.621094 208.613281 C 263.605469 208.769531 265.824219 212.785156 265.574219 217.59375 "/>
<path style=" stroke:none;fill-rule:nonzero;fill:rgb(0%,48.199463%,100%);fill-opacity:1;" d="M 251.515625 200.675781 C 241.933594 200.675781 234.140625 208.46875 234.140625 218.050781 C 234.140625 227.628906 241.933594 235.425781 251.515625 235.425781 C 261.09375 235.425781 268.890625 227.628906 268.890625 218.050781 C 268.890625 208.46875 261.09375 200.675781 251.515625 200.675781 M 251.515625 237.425781 C 240.828125 237.425781 232.140625 228.734375 232.140625 218.050781 C 232.140625 207.363281 240.828125 198.675781 251.515625 198.675781 C 262.199219 198.675781 270.890625 207.363281 270.890625 218.050781 C 270.890625 228.734375 262.199219 237.425781 251.515625 237.425781 "/>
<g clip-path="url(#clip5)" clip-rule="nonzero">
<use xlink:href="#surface10" transform="matrix(1,0,0,1,289,220)" mask="url(#mask1)"/>
</g>
<g clip-path="url(#clip8)" clip-rule="nonzero">
<use xlink:href="#surface13" transform="matrix(1,0,0,1,282,205)" mask="url(#mask2)"/>
</g>
<path style=" stroke:none;fill-rule:nonzero;fill:rgb(9.799194%,17.999268%,20.799255%);fill-opacity:1;" d="M 128.734375 354.964844 C 128.609375 354.964844 128.488281 354.964844 128.363281 354.960938 C 125.601563 354.886719 123.425781 352.585938 123.503906 349.824219 C 123.578125 347.066406 125.851563 344.929688 128.636719 344.964844 C 128.667969 344.964844 128.699219 344.964844 128.734375 344.964844 C 131.621094 344.964844 138.570313 341.457031 153.109375 318.535156 C 153.894531 317.304688 155.171875 316.476563 156.613281 316.265625 C 158.058594 316.0625 159.519531 316.488281 160.621094 317.445313 C 178.5625 333.089844 197.574219 342.828125 197.761719 342.921875 C 200.226563 344.171875 201.207031 347.183594 199.957031 349.644531 C 198.707031 352.105469 195.699219 353.089844 193.238281 351.839844 C 192.484375 351.457031 175.863281 342.960938 158.441406 328.695313 C 146.253906 347.011719 137.210938 354.964844 128.734375 354.964844 "/>
<path style=" stroke:none;fill-rule:nonzero;fill:rgb(9.799194%,17.999268%,20.799255%);fill-opacity:1;" d="M 159.671875 316.546875 C 159.527344 316.546875 159.386719 316.539063 159.242188 316.519531 C 157.601563 316.285156 156.464844 314.765625 156.695313 313.125 C 157.40625 308.148438 156.527344 289.496094 150.222656 274.996094 C 149.648438 273.675781 150.09375 272.132813 151.28125 271.320313 C 164.980469 261.988281 194.160156 260.871094 195.394531 260.828125 C 197.042969 260.792969 198.441406 262.066406 198.496094 263.722656 C 198.554688 265.375 197.261719 266.765625 195.605469 266.824219 C 195.335938 266.832031 169.824219 267.8125 156.714844 275.027344 C 162.300781 289.464844 163.566406 307.460938 162.636719 313.972656 C 162.421875 315.46875 161.140625 316.546875 159.671875 316.546875 "/>
<path style=" stroke:none;fill-rule:nonzero;fill:rgb(0%,48.199463%,100%);fill-opacity:1;" d="M 164.710938 312.664063 C 162.714844 307.957031 153.722656 308.492188 148.441406 312.527344 C 145.621094 314.683594 141.800781 321.167969 141.398438 323.519531 C 140.996094 325.867188 142.628906 327.996094 145.421875 327.753906 C 148.871094 327.457031 153.605469 322.445313 153.605469 322.445313 C 150.453125 325.535156 154.519531 327.714844 160.582031 323.246094 C 163.945313 320.769531 166.945313 317.933594 164.710938 312.664063 "/>
<path style=" stroke:none;fill-rule:nonzero;fill:rgb(9.799194%,17.999268%,20.799255%);fill-opacity:1;" d="M 346.726563 229.6875 C 347.179688 229.855469 347.6875 229.953125 348.164063 230.011719 C 353.144531 230.601563 357.546875 229.902344 358.203125 229.28125 C 358.035156 229.128906 357.363281 228.699219 354.875 228.226563 C 351.59375 227.601563 348.726563 228.421875 346.726563 229.6875 M 345.464844 235.308594 C 345.550781 235.335938 345.640625 235.359375 345.722656 235.378906 C 349.253906 236.246094 354.019531 236.390625 355.65625 236.125 C 355.152344 235.910156 354.117188 235.566406 352.019531 235.105469 C 349.246094 234.496094 347.078125 234.683594 345.464844 235.308594 M 342.132813 241.878906 C 342.40625 242.390625 342.820313 242.8125 343.351563 243.09375 C 345.605469 244.296875 350.046875 244.570313 351.714844 243.898438 C 352.054688 243.761719 352.105469 243.648438 352.105469 243.644531 C 352.105469 243.644531 352.046875 243.085938 349.601563 242.035156 C 346.800781 240.835938 344.5625 240.667969 342.769531 241.519531 C 342.554688 241.625 342.339844 241.742188 342.132813 241.878906 M 336.703125 251.210938 C 336.660156 251.210938 336.613281 251.203125 336.566406 251.191406 C 336.304688 251.113281 336.148438 250.835938 336.226563 250.570313 C 337.558594 245.933594 339.011719 243.097656 340.925781 241.519531 C 340.632813 240.523438 340.664063 239.382813 341.078125 238.261719 C 341.480469 237.171875 342.257813 236.089844 343.4375 235.257813 C 342.859375 234.632813 342.644531 233.8125 342.851563 232.875 C 343.074219 231.835938 343.835938 230.707031 344.984375 229.71875 C 344.53125 229.199219 344.421875 228.632813 344.417969 228.210938 C 344.394531 225.230469 349.925781 220.6875 356.179688 219.832031 C 356.453125 219.78125 356.707031 219.984375 356.742188 220.261719 C 356.78125 220.535156 356.589844 220.785156 356.316406 220.824219 C 350.378906 221.632813 345.398438 225.933594 345.417969 228.203125 C 345.421875 228.570313 345.558594 228.867188 345.78125 229.105469 C 348.03125 227.539063 351.355469 226.53125 355.0625 227.242188 C 358.132813 227.828125 359.378906 228.476563 359.234375 229.410156 C 358.964844 231.164063 352.425781 231.523438 348.046875 231.003906 C 347.054688 230.886719 346.324219 230.652344 345.796875 230.359375 C 344.703125 231.25 344.007813 232.25 343.828125 233.089844 C 343.664063 233.835938 343.90625 234.359375 344.320313 234.722656 C 346.179688 233.765625 348.789063 233.367188 352.238281 234.128906 C 356.773438 235.128906 356.945313 235.683594 357.046875 236.011719 C 357.117188 236.246094 357.058594 236.488281 356.886719 236.675781 C 355.929688 237.6875 348.976563 237.207031 345.488281 236.351563 C 345.03125 236.238281 344.628906 236.089844 344.285156 235.898438 C 343.128906 236.628906 342.382813 237.613281 342.015625 238.609375 C 341.722656 239.40625 341.65625 240.199219 341.789063 240.910156 C 341.972656 240.804688 342.15625 240.707031 342.34375 240.617188 C 344.410156 239.632813 346.914063 239.796875 349.996094 241.117188 C 352.039063 241.992188 353.027344 242.765625 353.101563 243.554688 C 353.121094 243.789063 353.074219 244.234375 352.527344 244.597656 C 351.003906 245.609375 345.660156 245.457031 342.878906 243.976563 C 342.226563 243.628906 341.703125 243.113281 341.34375 242.492188 C 339.707031 243.984375 338.390625 246.65625 337.1875 250.847656 C 337.121094 251.066406 336.921875 251.210938 336.703125 251.210938 "/>
<path style=" stroke:none;fill-rule:nonzero;fill:rgb(9.799194%,17.999268%,20.799255%);fill-opacity:1;" d="M 206.527344 353.296875 C 207.1875 353.085938 206.964844 352.449219 206.230469 352.449219 L 192.691406 352.449219 C 166.910156 349.71875 148.898438 353.378906 160.246094 354.242188 C 171.597656 355.105469 159.449219 354.921875 151.160156 358.058594 C 142.871094 361.195313 212.8125 361.984375 219.175781 358.058594 C 225.042969 354.4375 197.394531 356.222656 206.527344 353.296875 "/>
<path style=" stroke:none;fill-rule:nonzero;fill:rgb(0%,48.199463%,100%);fill-opacity:1;" d="M 303.46875 357.285156 L 185.667969 353.382813 L 180.777344 239.160156 L 319.890625 242.269531 Z M 303.46875 357.285156 "/>
<path style=" stroke:none;fill-rule:nonzero;fill:rgb(9.799194%,17.999268%,20.799255%);fill-opacity:1;" d="M 222.453125 355.101563 C 222.195313 355.101563 221.976563 354.902344 221.953125 354.640625 L 212.511719 239.921875 C 212.488281 239.644531 212.691406 239.40625 212.96875 239.382813 C 213.25 239.367188 213.484375 239.5625 213.507813 239.839844 L 222.949219 354.558594 C 222.972656 354.835938 222.769531 355.078125 222.492188 355.097656 C 222.480469 355.101563 222.464844 355.101563 222.453125 355.101563 "/>
<path style=" stroke:none;fill-rule:nonzero;fill:rgb(0%,48.199463%,100%);fill-opacity:1;" d="M 303.46875 357.285156 L 335.132813 352.46875 L 345.105469 246.257813 L 319.890625 242.269531 Z M 303.46875 357.285156 "/>
<g clip-path="url(#clip11)" clip-rule="nonzero">
<use xlink:href="#surface16" transform="matrix(1,0,0,1,303,242)" mask="url(#mask3)"/>
</g>
<path style=" stroke:none;fill-rule:nonzero;fill:rgb(9.799194%,17.999268%,20.799255%);fill-opacity:1;" d="M 195.734375 331.363281 L 192.828125 263.503906 C 192.527344 256.421875 198.273438 250.554688 205.363281 250.714844 L 293.421875 252.679688 C 300.773438 252.847656 306.332031 259.398438 305.292969 266.679688 L 295.527344 335.074219 C 294.644531 341.269531 289.234375 345.808594 282.976563 345.601563 L 207.585938 343.101563 C 201.175781 342.890625 196.007813 337.773438 195.734375 331.363281 "/>
<path style=" stroke:none;fill-rule:nonzero;fill:rgb(100%,100%,100%);fill-opacity:1;" d="M 205.246094 271.535156 L 218.871094 271.972656 L 218.757813 275.484375 L 210.230469 275.210938 L 210.148438 277.824219 L 218.058594 278.078125 L 217.953125 281.433594 L 210.039063 281.183594 L 209.9375 284.425781 L 218.714844 284.703125 L 218.59375 288.429688 L 204.722656 287.988281 "/>
<path style=" stroke:none;fill-rule:nonzero;fill:rgb(100%,100%,100%);fill-opacity:1;" d="M 226.816406 278.894531 L 228.960938 278.964844 C 229.191406 278.972656 229.644531 278.910156 230.3125 278.785156 C 230.652344 278.726563 230.933594 278.5625 231.15625 278.292969 C 231.378906 278.023438 231.496094 277.707031 231.507813 277.347656 C 231.523438 276.816406 231.367188 276.40625 231.039063 276.109375 C 230.714844 275.816406 230.085938 275.652344 229.15625 275.625 L 226.921875 275.550781 Z M 221.398438 288.519531 L 221.921875 272.066406 L 230.394531 272.335938 C 231.96875 272.386719 233.164063 272.558594 233.984375 272.855469 C 234.808594 273.152344 235.460938 273.671875 235.945313 274.417969 C 236.433594 275.164063 236.660156 276.058594 236.625 277.105469 C 236.597656 278.019531 236.378906 278.800781 235.96875 279.453125 C 235.554688 280.101563 235.003906 280.621094 234.308594 281.011719 C 233.867188 281.257813 233.265625 281.457031 232.503906 281.605469 C 233.101563 281.828125 233.535156 282.042969 233.808594 282.253906 C 233.988281 282.394531 234.253906 282.691406 234.59375 283.144531 C 234.933594 283.597656 235.160156 283.945313 235.273438 284.1875 L 237.582031 289.035156 L 231.839844 288.851563 L 229.28125 283.738281 C 228.957031 283.078125 228.664063 282.644531 228.402344 282.441406 C 228.042969 282.175781 227.632813 282.035156 227.167969 282.019531 L 226.71875 282.003906 L 226.507813 288.683594 "/>
<path style=" stroke:none;fill-rule:nonzero;fill:rgb(100%,100%,100%);fill-opacity:1;" d="M 244.695313 279.464844 L 246.839844 279.53125 C 247.070313 279.539063 247.519531 279.480469 248.191406 279.351563 C 248.53125 279.296875 248.8125 279.132813 249.035156 278.863281 C 249.253906 278.589844 249.371094 278.277344 249.382813 277.917969 C 249.402344 277.386719 249.246094 276.972656 248.917969 276.679688 C 248.589844 276.382813 247.960938 276.222656 247.035156 276.191406 L 244.800781 276.121094 Z M 239.277344 289.089844 L 239.800781 272.636719 L 248.273438 272.90625 C 249.84375 272.957031 251.042969 273.128906 251.863281 273.425781 C 252.683594 273.71875 253.339844 274.242188 253.824219 274.984375 C 254.308594 275.734375 254.535156 276.628906 254.503906 277.675781 C 254.472656 278.589844 254.253906 279.371094 253.84375 280.019531 C 253.433594 280.667969 252.878906 281.191406 252.1875 281.578125 C 251.746094 281.828125 251.140625 282.027344 250.378906 282.171875 C 250.980469 282.394531 251.414063 282.609375 251.683594 282.820313 C 251.867188 282.960938 252.128906 283.257813 252.472656 283.710938 C 252.8125 284.164063 253.039063 284.515625 253.148438 284.757813 L 255.460938 289.605469 L 249.714844 289.421875 L 247.160156 284.304688 C 246.835938 283.644531 246.542969 283.210938 246.277344 283.007813 C 245.921875 282.742188 245.507813 282.601563 245.046875 282.585938 L 244.597656 282.574219 L 244.382813 289.25 "/>
<path style=" stroke:none;fill-rule:nonzero;fill:rgb(100%,100%,100%);fill-opacity:1;" d="M 261.398438 281.589844 C 261.347656 283.253906 261.617188 284.457031 262.210938 285.199219 C 262.804688 285.945313 263.632813 286.335938 264.695313 286.371094 C 265.789063 286.40625 266.644531 286.074219 267.265625 285.382813 C 267.886719 284.695313 268.226563 283.425781 268.285156 281.585938 C 268.335938 280.039063 268.058594 278.898438 267.457031 278.160156 C 266.855469 277.425781 266.019531 277.042969 264.949219 277.007813 C 263.921875 276.976563 263.089844 277.3125 262.445313 278.019531 C 261.800781 278.726563 261.453125 279.914063 261.398438 281.589844 M 256.316406 281.40625 C 256.402344 278.722656 257.214844 276.65625 258.761719 275.207031 C 260.304688 273.757813 262.410156 273.074219 265.082031 273.160156 C 267.820313 273.246094 269.90625 274.050781 271.34375 275.566406 C 272.777344 277.082031 273.449219 279.167969 273.367188 281.816406 C 273.304688 283.738281 272.933594 285.304688 272.246094 286.515625 C 271.558594 287.722656 270.59375 288.652344 269.347656 289.296875 C 268.105469 289.945313 266.570313 290.238281 264.742188 290.179688 C 262.886719 290.121094 261.363281 289.777344 260.164063 289.148438 C 258.96875 288.515625 258.011719 287.550781 257.296875 286.246094 C 256.582031 284.945313 256.253906 283.328125 256.316406 281.40625 "/>
<path style=" stroke:none;fill-rule:nonzero;fill:rgb(100%,100%,100%);fill-opacity:1;" d="M 281.324219 280.628906 L 283.46875 280.699219 C 283.699219 280.707031 284.152344 280.644531 284.820313 280.515625 C 285.160156 280.460938 285.441406 280.296875 285.664063 280.027344 C 285.886719 279.757813 286.003906 279.441406 286.011719 279.082031 C 286.03125 278.550781 285.875 278.140625 285.546875 277.84375 C 285.21875 277.550781 284.59375 277.386719 283.664063 277.359375 L 281.429688 277.285156 Z M 275.90625 290.253906 L 276.429688 273.800781 L 284.902344 274.070313 C 286.476563 274.121094 287.671875 274.292969 288.492188 274.589844 C 289.316406 274.886719 289.96875 275.40625 290.453125 276.152344 C 290.941406 276.898438 291.164063 277.792969 291.132813 278.839844 C 291.105469 279.753906 290.882813 280.535156 290.472656 281.1875 C 290.0625 281.835938 289.511719 282.355469 288.816406 282.746094 C 288.375 282.992188 287.773438 283.191406 287.011719 283.339844 C 287.609375 283.5625 288.042969 283.777344 288.316406 283.988281 C 288.496094 284.128906 288.757813 284.425781 289.101563 284.878906 C 289.441406 285.332031 289.667969 285.679688 289.78125 285.921875 L 292.089844 290.769531 L 286.347656 290.585938 L 283.789063 285.472656 C 283.464844 284.8125 283.171875 284.378906 282.90625 284.175781 C 282.550781 283.910156 282.136719 283.769531 281.675781 283.753906 L 281.226563 283.738281 L 281.011719 290.417969 "/>
<path style=" stroke:none;fill-rule:nonzero;fill:rgb(100%,100%,100%);fill-opacity:1;" d="M 284 318.207031 C 283.644531 318.207031 283.289063 318.0625 283.027344 317.78125 L 274.46875 308.410156 L 265.230469 316.851563 C 264.695313 317.339844 263.867188 317.300781 263.378906 316.769531 L 254.816406 307.398438 L 245.578125 315.835938 C 245.046875 316.328125 244.214844 316.289063 243.726563 315.753906 L 235.164063 306.386719 L 225.929688 314.824219 C 225.671875 315.0625 225.324219 315.183594 224.984375 315.167969 C 224.636719 315.152344 224.308594 315 224.074219 314.742188 L 215.511719 305.375 L 206.277344 313.8125 C 205.742188 314.304688 204.910156 314.265625 204.421875 313.730469 C 203.933594 313.195313 203.972656 312.363281 204.507813 311.875 L 214.710938 302.550781 C 215.246094 302.058594 216.078125 302.097656 216.566406 302.632813 L 225.125 312.003906 L 234.363281 303.5625 C 234.621094 303.328125 234.964844 303.207031 235.308594 303.21875 C 235.65625 303.234375 235.984375 303.390625 236.21875 303.644531 L 244.777344 313.015625 L 254.015625 304.574219 C 254.550781 304.085938 255.378906 304.121094 255.871094 304.65625 L 264.429688 314.027344 L 273.667969 305.585938 C 274.203125 305.097656 275.03125 305.132813 275.519531 305.671875 L 284.96875 316.007813 C 285.457031 316.542969 285.417969 317.375 284.882813 317.863281 C 284.632813 318.09375 284.316406 318.207031 284 318.207031 "/>
<path style=" stroke:none;fill-rule:nonzero;fill:rgb(0%,48.199463%,100%);fill-opacity:1;" d="M 125.75 359.714844 L 119.492188 356.730469 L 113.910156 329.5625 L 116.9375 326.226563 Z M 125.75 359.714844 "/>
<path style=" stroke:none;fill-rule:nonzero;fill:rgb(0%,48.199463%,100%);fill-opacity:1;" d="M 125.75 359.714844 L 134.054688 354.863281 L 126.933594 332.480469 L 116.9375 326.226563 Z M 125.75 359.714844 "/>
<g clip-path="url(#clip14)" clip-rule="nonzero">
<use xlink:href="#surface19" transform="matrix(1,0,0,1,116,326)" mask="url(#mask4)"/>
</g>
<path style=" stroke:none;fill-rule:nonzero;fill:rgb(9.799194%,17.999268%,20.799255%);fill-opacity:1;" d="M 261.949219 364.652344 C 261.714844 364.652344 261.480469 364.648438 261.257813 364.644531 C 258.496094 364.566406 256.320313 362.269531 256.398438 359.507813 C 256.472656 356.75 258.753906 354.578125 261.53125 354.648438 C 269.234375 354.898438 285.539063 350.167969 294.851563 341.128906 C 295.425781 340.570313 296.128906 340.15625 296.898438 339.925781 C 312.683594 335.1875 318.5625 344.761719 318.804688 345.171875 L 310.195313 350.261719 C 310.195313 350.261719 310.230469 350.328125 310.3125 350.441406 C 310.214844 350.3125 307.980469 347.402344 300.859375 349.203125 C 289.171875 359.871094 271.234375 364.652344 261.949219 364.652344 "/>
<path style=" stroke:none;fill-rule:nonzero;fill:rgb(0%,48.199463%,100%);fill-opacity:1;" d="M 261.394531 371.300781 L 243.183594 370.152344 L 241.746094 336.578125 L 266.222656 337.492188 Z M 261.394531 371.300781 "/>
<path style=" stroke:none;fill-rule:nonzero;fill:rgb(0%,48.199463%,100%);fill-opacity:1;" d="M 261.394531 371.300781 L 265.652344 367.066406 L 268.289063 346.128906 L 266.222656 337.492188 Z M 261.394531 371.300781 "/>
<g clip-path="url(#clip17)" clip-rule="nonzero">
<use xlink:href="#surface18" transform="matrix(1,0,0,1,261,337)" mask="url(#mask5)"/>
</g>
<path style=" stroke:none;fill-rule:nonzero;fill:rgb(9.799194%,17.999268%,20.799255%);fill-opacity:1;" d="M 366.910156 358.585938 C 366.277344 358.585938 365.640625 358.386719 365.097656 357.976563 C 354.703125 350.074219 340.652344 336.046875 335.261719 322.519531 C 335.179688 322.320313 335.125 322.113281 335.089844 321.902344 C 332.460938 306.273438 329.949219 273.363281 329.84375 271.96875 C 329.71875 270.316406 330.953125 268.878906 332.605469 268.753906 C 334.253906 268.632813 335.699219 269.863281 335.824219 271.515625 C 335.851563 271.851563 338.386719 305.082031 340.953125 320.589844 C 346.328125 333.746094 360.910156 347.253906 368.726563 353.195313 C 370.046875 354.199219 370.304688 356.082031 369.300781 357.402344 C 368.710938 358.175781 367.816406 358.585938 366.910156 358.585938 "/>
<path style=" stroke:none;fill-rule:nonzero;fill:rgb(9.799194%,17.999268%,20.799255%);fill-opacity:1;" d="M 380.777344 360.101563 C 378.460938 360.101563 375.828125 359.050781 372.964844 356.976563 C 371.621094 356.003906 371.320313 354.128906 372.292969 352.789063 C 373.265625 351.445313 375.140625 351.144531 376.480469 352.117188 C 378.957031 353.910156 380.3125 354.101563 380.777344 354.101563 C 382.433594 354.101563 383.777344 355.445313 383.777344 357.101563 C 383.777344 358.757813 382.433594 360.101563 380.777344 360.101563 "/>
<path style=" stroke:none;fill-rule:nonzero;fill:rgb(0%,48.199463%,100%);fill-opacity:1;" d="M 373.804688 356.890625 C 377.015625 347.355469 390.175781 349.242188 394.707031 350.65625 C 399.238281 352.074219 403.320313 353.851563 405.773438 355.457031 C 408.230469 357.0625 408.269531 359.746094 404.996094 361.273438 C 400.960938 363.164063 390.835938 361.488281 390.835938 361.488281 C 396.074219 363.78125 390.824219 367.460938 381.628906 363.847656 C 378.636719 362.671875 372.671875 360.382813 373.804688 356.890625 "/>
<path style=" stroke:none;fill-rule:nonzero;fill:rgb(9.799194%,17.999268%,20.799255%);fill-opacity:1;" d="M 341.863281 276.085938 C 340.671875 284.1875 333.960938 290.160156 328.503906 289.359375 C 323.046875 288.558594 322.820313 281.320313 324.011719 273.21875 C 325.203125 265.117188 327.359375 259.21875 332.816406 260.019531 C 338.273438 260.820313 343.054688 267.984375 341.863281 276.085938 "/>
<path style=" stroke:none;fill-rule:nonzero;fill:rgb(9.799194%,17.999268%,20.799255%);fill-opacity:1;" d="M 210.695313 242.925781 C 210.695313 243.375 210.328125 243.742188 209.875 243.742188 C 209.421875 243.742188 209.054688 243.375 209.054688 242.925781 C 209.054688 242.472656 209.421875 242.105469 209.875 242.105469 C 210.328125 242.105469 210.695313 242.472656 210.695313 242.925781 "/>
<path style=" stroke:none;fill-rule:nonzero;fill:rgb(9.799194%,17.999268%,20.799255%);fill-opacity:1;" d="M 218.207031 248.824219 C 218.207031 249.277344 217.839844 249.644531 217.390625 249.644531 C 216.9375 249.644531 216.570313 249.277344 216.570313 248.824219 C 216.570313 248.375 216.9375 248.007813 217.390625 248.007813 C 217.839844 248.007813 218.207031 248.375 218.207031 248.824219 "/>
<path style=" stroke:none;fill-rule:nonzero;fill:rgb(9.799194%,17.999268%,20.799255%);fill-opacity:1;" d="M 219.125 345.730469 C 219.125 346.183594 218.757813 346.550781 218.304688 346.550781 C 217.851563 346.550781 217.484375 346.183594 217.484375 345.730469 C 217.484375 345.277344 217.851563 344.914063 218.304688 344.914063 C 218.757813 344.914063 219.125 345.277344 219.125 345.730469 "/>
<path style=" stroke:none;fill-rule:nonzero;fill:rgb(9.799194%,17.999268%,20.799255%);fill-opacity:1;" d="M 226.640625 351.632813 C 226.640625 352.085938 226.273438 352.453125 225.820313 352.453125 C 225.367188 352.453125 225 352.085938 225 351.632813 C 225 351.179688 225.367188 350.816406 225.820313 350.816406 C 226.273438 350.816406 226.640625 351.179688 226.640625 351.632813 "/>
<path style=" stroke:none;fill-rule:nonzero;fill:rgb(9.799194%,17.999268%,20.799255%);fill-opacity:1;" d="M 93.507813 351.449219 C 93.503906 351.449219 93.132813 351.640625 92.984375 353.308594 C 92.839844 354.992188 93.144531 356.132813 93.917969 356.796875 C 94.09375 356.945313 94.296875 357.070313 94.519531 357.175781 C 94.800781 356.859375 94.996094 356.511719 95.0625 356.144531 C 95.328125 354.695313 94.640625 352.574219 93.867188 351.714844 C 93.664063 351.492188 93.535156 351.449219 93.507813 351.449219 M 87.21875 352.316406 C 87.210938 352.695313 87.246094 353.324219 87.394531 354.378906 C 87.597656 355.804688 88.125 356.902344 88.914063 357.597656 C 88.679688 355.59375 87.789063 353.265625 87.21875 352.316406 M 81.644531 353.191406 C 81.589844 353.34375 81.484375 353.847656 81.730469 355.234375 C 82.058594 357.074219 83.25 358.296875 84.570313 358.941406 C 84.5625 358.730469 84.523438 358.492188 84.453125 358.234375 C 83.667969 355.375 82.175781 353.40625 81.644531 353.191406 M 82.511719 361.46875 C 80.132813 361.46875 76.914063 360.023438 75.175781 357.519531 C 75.019531 357.292969 75.074219 356.980469 75.300781 356.824219 C 75.53125 356.664063 75.839844 356.722656 76 356.949219 C 77.863281 359.644531 81.976563 361.082031 83.804688 360.230469 C 83.996094 360.140625 84.152344 360.027344 84.273438 359.890625 C 82.640625 359.136719 81.148438 357.660156 80.746094 355.410156 C 80.519531 354.140625 80.339844 352.429688 81.386719 352.191406 C 82.820313 351.871094 84.695313 355.339844 85.417969 357.96875 C 85.550781 358.453125 85.59375 358.90625 85.546875 359.3125 C 86.179688 359.484375 86.800781 359.527344 87.335938 359.453125 C 87.765625 359.390625 88.382813 359.210938 88.710938 358.707031 C 87.492188 357.886719 86.675781 356.4375 86.402344 354.515625 C 86.015625 351.78125 86.304688 351.304688 86.609375 351.074219 C 86.804688 350.921875 87.054688 350.894531 87.296875 350.996094 C 88.367188 351.449219 89.664063 355.328125 89.910156 357.523438 C 89.9375 357.765625 89.9375 357.996094 89.914063 358.21875 C 90.320313 358.382813 90.773438 358.46875 91.261719 358.480469 C 92.128906 358.527344 92.984375 358.253906 93.671875 357.851563 C 93.53125 357.761719 93.394531 357.664063 93.269531 357.554688 C 92.230469 356.667969 91.8125 355.253906 91.988281 353.222656 C 92.125 351.65625 92.480469 350.800781 93.113281 350.53125 C 93.332031 350.433594 93.78125 350.34375 94.320313 350.769531 C 95.398438 351.632813 96.40625 354.367188 96.046875 356.328125 C 95.96875 356.730469 95.796875 357.121094 95.542969 357.476563 C 97.378906 357.796875 99.960938 357.277344 102.1875 356.730469 C 102.453125 356.664063 102.726563 356.824219 102.792969 357.09375 C 102.859375 357.363281 102.695313 357.632813 102.425781 357.699219 C 99.71875 358.371094 96.800781 358.914063 94.738281 358.316406 C 93.824219 359.046875 92.535156 359.488281 91.242188 359.480469 C 90.652344 359.46875 90.101563 359.363281 89.601563 359.171875 C 89.207031 359.84375 88.472656 360.296875 87.476563 360.441406 C 86.8125 360.539063 86.03125 360.476563 85.238281 360.25 C 85.015625 360.625 84.675781 360.925781 84.226563 361.136719 C 83.75 361.359375 83.160156 361.46875 82.511719 361.46875 "/>
<path style=" stroke:none;fill-rule:nonzero;fill:rgb(9.799194%,17.999268%,20.799255%);fill-opacity:1;" d="M 228.871094 369.027344 L 231.582031 364.324219 L 228.871094 359.628906 L 225.972656 359.628906 L 227.609375 364.328125 L 225.972656 369.027344 "/>
<path style=" stroke:none;fill-rule:nonzero;fill:rgb(9.799194%,17.999268%,20.799255%);fill-opacity:1;" d="M 226.164063 366.777344 C 224.8125 366.777344 223.714844 365.675781 223.714844 364.324219 C 223.714844 362.976563 224.8125 361.886719 226.164063 361.886719 L 221.554688 360.964844 L 220.332031 364.683594 L 222.390625 367.824219 "/>
<path style=" stroke:none;fill-rule:nonzero;fill:rgb(0%,48.199463%,100%);fill-opacity:1;" d="M 223.847656 366.777344 C 222.496094 366.777344 221.398438 365.675781 221.398438 364.324219 C 221.398438 362.976563 222.496094 361.886719 223.847656 361.886719 C 225.195313 361.886719 226.285156 362.976563 226.285156 364.324219 C 226.285156 365.675781 225.195313 366.777344 223.847656 366.777344 M 226.558594 359.628906 L 221.128906 359.628906 L 218.417969 364.324219 L 221.128906 369.027344 L 226.558594 369.027344 L 229.265625 364.324219 "/>
<path style=" stroke:none;fill-rule:nonzero;fill:rgb(0%,48.199463%,100%);fill-opacity:1;" d="M 417.890625 359.3125 L 415.878906 355.824219 L 417.890625 352.332031 L 420.046875 352.332031 L 418.828125 355.824219 L 420.046875 359.3125 "/>
<path style=" stroke:none;fill-rule:nonzero;fill:rgb(0%,48.199463%,100%);fill-opacity:1;" d="M 419.902344 357.640625 C 420.90625 357.640625 421.722656 356.828125 421.722656 355.824219 C 421.722656 354.820313 420.90625 354.011719 419.902344 354.011719 L 423.324219 353.328125 L 424.230469 356.089844 L 422.703125 358.421875 "/>
<path style=" stroke:none;fill-rule:nonzero;fill:rgb(9.799194%,17.999268%,20.799255%);fill-opacity:1;" d="M 421.621094 357.640625 C 422.625 357.640625 423.441406 356.828125 423.441406 355.824219 C 423.441406 354.820313 422.625 354.011719 421.621094 354.011719 C 420.621094 354.011719 419.8125 354.820313 419.8125 355.824219 C 419.8125 356.828125 420.621094 357.640625 421.621094 357.640625 M 419.609375 352.332031 L 423.644531 352.332031 L 425.65625 355.824219 L 423.644531 359.3125 L 419.609375 359.3125 L 417.597656 355.824219 "/>
<path style=" stroke:none;fill-rule:nonzero;fill:rgb(9.799194%,17.999268%,20.799255%);fill-opacity:1;" d="M 342.949219 363.945313 L 347.464844 363.945313 C 348.644531 363.945313 349.605469 362.984375 349.605469 361.808594 C 349.605469 360.632813 348.644531 359.667969 347.464844 359.667969 L 342.949219 359.667969 C 341.769531 359.667969 340.808594 360.632813 340.808594 361.808594 C 340.808594 362.984375 341.769531 363.945313 342.949219 363.945313 "/>
<path style=" stroke:none;fill-rule:nonzero;fill:rgb(0%,48.199463%,100%);fill-opacity:1;" d="M 335.730469 359.910156 C 336.847656 357.546875 339.550781 356.476563 341.773438 357.523438 C 343.992188 358.570313 344.890625 361.335938 343.773438 363.703125 C 342.65625 366.070313 339.953125 367.140625 337.730469 366.09375 C 335.511719 365.042969 334.613281 362.277344 335.730469 359.910156 "/>
<path style=" stroke:none;fill-rule:nonzero;fill:rgb(9.799194%,17.999268%,20.799255%);fill-opacity:1;" d="M 336.976563 366.082031 L 338.21875 366.667969 L 342.523438 357.53125 L 341.285156 356.945313 Z M 336.976563 366.082031 "/>
</g>
</svg>
