<?xml version="1.0" encoding="UTF-8"?>
<svg xmlns="http://www.w3.org/2000/svg" xmlns:xlink="http://www.w3.org/1999/xlink" width="500pt" height="372.61pt" viewBox="0 0 500 372.61" version="1.1">
<defs>
<clipPath id="clip1">
  <path d="M 56 349 L 444 349 L 444 372.609375 L 56 372.609375 Z M 56 349 "/>
</clipPath>
<clipPath id="clip2">
  <path d="M 107.273438 70.644531 L 257.046875 70.644531 L 257.046875 299.007813 L 107.273438 299.007813 Z M 107.273438 70.644531 "/>
</clipPath>
<filter id="alpha" filterUnits="objectBoundingBox" x="0%" y="0%" width="100%" height="100%">
  <feColorMatrix type="matrix" in="SourceGraphic" values="0 0 0 0 1 0 0 0 0 1 0 0 0 0 1 0 0 0 1 0"/>
</filter>
<mask id="mask0">
  <g filter="url(#alpha)">
<rect x="0" y="0" width="500" height="372.61" style="fill:rgb(0%,0%,0%);fill-opacity:0.300003;stroke:none;"/>
  </g>
</mask>
<clipPath id="clip4">
  <path d="M 0.273438 0.644531 L 150.046875 0.644531 L 150.046875 229.007813 L 0.273438 229.007813 Z M 0.273438 0.644531 "/>
</clipPath>
<clipPath id="clip3">
  <rect width="151" height="230"/>
</clipPath>
<g id="surface7" clip-path="url(#clip3)">
<g clip-path="url(#clip4)" clip-rule="nonzero">
<path style=" stroke:none;fill-rule:nonzero;fill:rgb(100%,100%,100%);fill-opacity:1;" d="M 150.046875 229.011719 L 8.046875 229.011719 L 0.273438 0.644531 L 142.273438 0.644531 Z M 150.046875 229.011719 "/>
</g>
</g>
<clipPath id="clip5">
  <path d="M 152.054688 143.058594 L 210.019531 143.058594 L 210.019531 169.105469 L 152.054688 169.105469 Z M 152.054688 143.058594 "/>
</clipPath>
<mask id="mask1">
  <g filter="url(#alpha)">
<rect x="0" y="0" width="500" height="372.61" style="fill:rgb(0%,0%,0%);fill-opacity:0.600006;stroke:none;"/>
  </g>
</mask>
<clipPath id="clip7">
  <path d="M 0.0546875 0.0585938 L 58.019531 0.0585938 L 58.019531 26.105469 L 0.0546875 26.105469 Z M 0.0546875 0.0585938 "/>
</clipPath>
<clipPath id="clip6">
  <rect width="59" height="27"/>
</clipPath>
<g id="surface10" clip-path="url(#clip6)">
<g clip-path="url(#clip7)" clip-rule="nonzero">
<path style=" stroke:none;fill-rule:nonzero;fill:rgb(0%,48.199463%,100%);fill-opacity:1;" d="M 58.019531 8.839844 C 52.808594 19.113281 42.15625 26.105469 29.625 26.105469 C 17.09375 26.105469 5.964844 19.113281 0.0546875 8.839844 C 8.164063 3.296875 18.015625 0.0585938 28.738281 0.0585938 C 39.460938 0.0585938 49.53125 3.296875 58.019531 8.839844 "/>
</g>
</g>
<clipPath id="clip8">
  <path d="M 165.425781 110.175781 L 194.8125 110.175781 L 194.8125 139.542969 L 165.425781 139.542969 Z M 165.425781 110.175781 "/>
</clipPath>
<mask id="mask2">
  <g filter="url(#alpha)">
<rect x="0" y="0" width="500" height="372.61" style="fill:rgb(0%,0%,0%);fill-opacity:0.600006;stroke:none;"/>
  </g>
</mask>
<clipPath id="clip10">
  <path d="M 0.425781 0.175781 L 29.8125 0.175781 L 29.8125 29.542969 L 0.425781 29.542969 Z M 0.425781 0.175781 "/>
</clipPath>
<clipPath id="clip9">
  <rect width="30" height="30"/>
</clipPath>
<g id="surface13" clip-path="url(#clip9)">
<g clip-path="url(#clip10)" clip-rule="nonzero">
<path style=" stroke:none;fill-rule:nonzero;fill:rgb(0%,48.199463%,100%);fill-opacity:1;" d="M 29.804688 14.859375 C 30.078125 22.96875 23.730469 29.542969 15.617188 29.542969 C 7.511719 29.542969 0.710938 22.96875 0.433594 14.859375 C 0.160156 6.75 6.511719 0.175781 14.621094 0.175781 C 22.730469 0.175781 29.527344 6.75 29.804688 14.859375 "/>
</g>
</g>
<clipPath id="clip11">
  <path d="M 300.210938 95.910156 L 307.621094 95.910156 L 307.621094 106.667969 L 300.210938 106.667969 Z M 300.210938 95.910156 "/>
</clipPath>
<mask id="mask3">
  <g filter="url(#alpha)">
<rect x="0" y="0" width="500" height="372.61" style="fill:rgb(0%,0%,0%);fill-opacity:0.199997;stroke:none;"/>
  </g>
</mask>
<clipPath id="clip13">
  <path d="M 0.210938 0.910156 L 7.621094 0.910156 L 7.621094 11.667969 L 0.210938 11.667969 Z M 0.210938 0.910156 "/>
</clipPath>
<clipPath id="clip12">
  <rect width="8" height="12"/>
</clipPath>
<g id="surface16" clip-path="url(#clip12)">
<g clip-path="url(#clip13)" clip-rule="nonzero">
<path style=" stroke:none;fill-rule:nonzero;fill:rgb(0%,0%,0%);fill-opacity:1;" d="M 7.511719 2.667969 L 1.398438 0.910156 L 0.210938 3.1875 C 0.359375 7.058594 2.71875 10.238281 5.851563 11.667969 C 7.550781 9.4375 7.621094 6.679688 7.621094 6.679688 "/>
</g>
</g>
<clipPath id="clip14">
  <path d="M 322.273438 113.84375 L 343.195313 113.84375 L 343.195313 142.460938 L 322.273438 142.460938 Z M 322.273438 113.84375 "/>
</clipPath>
<mask id="mask4">
  <g filter="url(#alpha)">
<rect x="0" y="0" width="500" height="372.61" style="fill:rgb(0%,0%,0%);fill-opacity:0.399994;stroke:none;"/>
  </g>
</mask>
<clipPath id="clip16">
  <path d="M 0.273438 0.84375 L 21.195313 0.84375 L 21.195313 29.460938 L 0.273438 29.460938 Z M 0.273438 0.84375 "/>
</clipPath>
<clipPath id="clip15">
  <rect width="22" height="30"/>
</clipPath>
<g id="surface19" clip-path="url(#clip15)">
<g clip-path="url(#clip16)" clip-rule="nonzero">
<path style=" stroke:none;fill-rule:nonzero;fill:rgb(0%,0%,0%);fill-opacity:1;" d="M 9.164063 1.03125 C 15.757813 2.542969 21.195313 19.371094 21.195313 19.371094 L 7.957031 29.460938 C 7.957031 29.460938 3.097656 24.882813 0.933594 16.460938 C -1.332031 7.640625 2.425781 -0.515625 9.164063 1.03125 "/>
</g>
</g>
<clipPath id="clip17">
  <path d="M 322.585938 126.40625 L 330.542969 126.40625 L 330.542969 142.464844 L 322.585938 142.464844 Z M 322.585938 126.40625 "/>
</clipPath>
<mask id="mask5">
  <g filter="url(#alpha)">
<rect x="0" y="0" width="500" height="372.61" style="fill:rgb(0%,0%,0%);fill-opacity:0.199997;stroke:none;"/>
  </g>
</mask>
<clipPath id="clip19">
  <path d="M 0.585938 0.40625 L 8.542969 0.40625 L 8.542969 16.464844 L 0.585938 16.464844 Z M 0.585938 0.40625 "/>
</clipPath>
<clipPath id="clip18">
  <rect width="9" height="17"/>
</clipPath>
<g id="surface22" clip-path="url(#clip18)">
<g clip-path="url(#clip19)" clip-rule="nonzero">
<path style=" stroke:none;fill-rule:nonzero;fill:rgb(0%,0%,0%);fill-opacity:1;" d="M 3.515625 0.40625 C 7.097656 3.949219 8.265625 10.402344 8.542969 16.011719 L 7.960938 16.464844 C 7.960938 16.464844 3.097656 11.878906 0.933594 3.460938 C 0.796875 2.933594 0.683594 2.40625 0.585938 1.890625 "/>
</g>
</g>
<clipPath id="clip20">
  <path d="M 288.308594 112.207031 L 331.167969 112.207031 L 331.167969 175.1875 L 288.308594 175.1875 Z M 288.308594 112.207031 "/>
</clipPath>
<mask id="mask6">
  <g filter="url(#alpha)">
<rect x="0" y="0" width="500" height="372.61" style="fill:rgb(0%,0%,0%);fill-opacity:0.399994;stroke:none;"/>
  </g>
</mask>
<clipPath id="clip22">
  <path d="M 0.308594 0.207031 L 43.167969 0.207031 L 43.167969 63.1875 L 0.308594 63.1875 Z M 0.308594 0.207031 "/>
</clipPath>
<clipPath id="clip21">
  <rect width="44" height="64"/>
</clipPath>
<g id="surface25" clip-path="url(#clip21)">
<g clip-path="url(#clip22)" clip-rule="nonzero">
<path style=" stroke:none;fill-rule:nonzero;fill:rgb(0%,0%,0%);fill-opacity:1;" d="M 1.507813 9.082031 C 0.0703125 16.683594 -0.828125 32.285156 3.34375 63.1875 L 40.964844 63.1875 C 41.226563 57.414063 37.597656 29.242188 43.164063 2.03125 C 43.164063 2.03125 36.71875 0.734375 30.570313 0.441406 C 25.765625 0.207031 18.804688 0.0546875 14.578125 0.441406 C 12.816406 0.601563 11.085938 0.855469 9.542969 1.128906 C 5.472656 1.847656 2.277344 5.023438 1.507813 9.082031 "/>
</g>
</g>
<clipPath id="clip23">
  <path d="M 288.3125 130.6875 L 295.292969 130.6875 L 295.292969 146.21875 L 288.3125 146.21875 Z M 288.3125 130.6875 "/>
</clipPath>
<mask id="mask7">
  <g filter="url(#alpha)">
<rect x="0" y="0" width="500" height="372.61" style="fill:rgb(0%,0%,0%);fill-opacity:0.199997;stroke:none;"/>
  </g>
</mask>
<clipPath id="clip25">
  <path d="M 0.3125 0.6875 L 7.292969 0.6875 L 7.292969 16.21875 L 0.3125 16.21875 Z M 0.3125 0.6875 "/>
</clipPath>
<clipPath id="clip24">
  <rect width="8" height="17"/>
</clipPath>
<g id="surface28" clip-path="url(#clip24)">
<g clip-path="url(#clip25)" clip-rule="nonzero">
<path style=" stroke:none;fill-rule:nonzero;fill:rgb(0%,0%,0%);fill-opacity:1;" d="M 7.265625 2.316406 L 0.46875 0.6875 C 0.257813 4.804688 0.238281 9.90625 0.542969 16.21875 C 3.675781 12.65625 7.667969 7.101563 7.265625 2.316406 "/>
</g>
</g>
<clipPath id="clip26">
  <path d="M 301.992188 337.820313 L 309.386719 337.820313 L 309.386719 346.214844 L 301.992188 346.214844 Z M 301.992188 337.820313 "/>
</clipPath>
<mask id="mask8">
  <g filter="url(#alpha)">
<rect x="0" y="0" width="500" height="372.61" style="fill:rgb(0%,0%,0%);fill-opacity:0.199997;stroke:none;"/>
  </g>
</mask>
<clipPath id="clip28">
  <path d="M 0.992188 0.820313 L 8.386719 0.820313 L 8.386719 9.214844 L 0.992188 9.214844 Z M 0.992188 0.820313 "/>
</clipPath>
<clipPath id="clip27">
  <rect width="9" height="10"/>
</clipPath>
<g id="surface31" clip-path="url(#clip27)">
<g clip-path="url(#clip28)" clip-rule="nonzero">
<path style=" stroke:none;fill-rule:nonzero;fill:rgb(0%,0%,0%);fill-opacity:1;" d="M 0.992188 0.820313 L 1.351563 9.214844 L 8.386719 9.214844 L 8.027344 0.820313 Z M 0.992188 0.820313 "/>
</g>
</g>
<clipPath id="clip29">
  <path d="M 347.574219 335.679688 L 358.011719 335.679688 L 358.011719 344.988281 L 347.574219 344.988281 Z M 347.574219 335.679688 "/>
</clipPath>
<mask id="mask9">
  <g filter="url(#alpha)">
<rect x="0" y="0" width="500" height="372.61" style="fill:rgb(0%,0%,0%);fill-opacity:0.199997;stroke:none;"/>
  </g>
</mask>
<clipPath id="clip31">
  <path d="M 0.574219 0.679688 L 11.011719 0.679688 L 11.011719 9.988281 L 0.574219 9.988281 Z M 0.574219 0.679688 "/>
</clipPath>
<clipPath id="clip30">
  <rect width="12" height="10"/>
</clipPath>
<g id="surface34" clip-path="url(#clip30)">
<g clip-path="url(#clip31)" clip-rule="nonzero">
<path style=" stroke:none;fill-rule:nonzero;fill:rgb(0%,0%,0%);fill-opacity:1;" d="M 7.449219 0.679688 L 0.574219 2.167969 L 4.136719 9.988281 L 11.011719 8.5 Z M 7.449219 0.679688 "/>
</g>
</g>
<clipPath id="clip32">
  <path d="M 307.65625 194.269531 L 317.574219 194.269531 L 317.574219 248.273438 L 307.65625 248.273438 Z M 307.65625 194.269531 "/>
</clipPath>
<mask id="mask10">
  <g filter="url(#alpha)">
<rect x="0" y="0" width="500" height="372.61" style="fill:rgb(0%,0%,0%);fill-opacity:0.300003;stroke:none;"/>
  </g>
</mask>
<clipPath id="clip34">
  <path d="M 0.65625 0.269531 L 10.574219 0.269531 L 10.574219 54.273438 L 0.65625 54.273438 Z M 0.65625 0.269531 "/>
</clipPath>
<clipPath id="clip33">
  <rect width="11" height="55"/>
</clipPath>
<g id="surface37" clip-path="url(#clip33)">
<g clip-path="url(#clip34)" clip-rule="nonzero">
<path style=" stroke:none;fill-rule:nonzero;fill:rgb(0%,0%,0%);fill-opacity:1;" d="M 2.734375 0.339844 C 11.964844 2.152344 10.988281 36.570313 9.878906 54.273438 C 7.214844 41.761719 3.320313 17.679688 0.65625 0.589844 C 1.269531 0.28125 1.960938 0.1875 2.734375 0.339844 "/>
</g>
</g>
<clipPath id="clip35">
  <path d="M 279.230469 113.179688 L 304.636719 113.179688 L 304.636719 143.183594 L 279.230469 143.183594 Z M 279.230469 113.179688 "/>
</clipPath>
<mask id="mask11">
  <g filter="url(#alpha)">
<rect x="0" y="0" width="500" height="372.61" style="fill:rgb(0%,0%,0%);fill-opacity:0.399994;stroke:none;"/>
  </g>
</mask>
<clipPath id="clip37">
  <path d="M 0.230469 0.183594 L 25.636719 0.183594 L 25.636719 30.183594 L 0.230469 30.183594 Z M 0.230469 0.183594 "/>
</clipPath>
<clipPath id="clip36">
  <rect width="26" height="31"/>
</clipPath>
<g id="surface40" clip-path="url(#clip36)">
<g clip-path="url(#clip37)" clip-rule="nonzero">
<path style=" stroke:none;fill-rule:nonzero;fill:rgb(0%,0%,0%);fill-opacity:1;" d="M 25.253906 10.390625 C 28.625 19.480469 8.8125 30.1875 8.8125 30.1875 L 0.230469 19.15625 C 0.230469 19.15625 5.953125 7.765625 12.976563 2.632813 C 21.652344 -3.710938 22.683594 3.472656 25.253906 10.390625 "/>
</g>
</g>
<clipPath id="clip38">
  <path d="M 340.632813 52.746094 L 364.355469 52.746094 L 364.355469 67.867188 L 340.632813 67.867188 Z M 340.632813 52.746094 "/>
</clipPath>
<mask id="mask12">
  <g filter="url(#alpha)">
<rect x="0" y="0" width="500" height="372.61" style="fill:rgb(0%,0%,0%);fill-opacity:0.600006;stroke:none;"/>
  </g>
</mask>
<clipPath id="clip40">
  <path d="M 0.632813 0.746094 L 24.355469 0.746094 L 24.355469 15.867188 L 0.632813 15.867188 Z M 0.632813 0.746094 "/>
</clipPath>
<clipPath id="clip39">
  <rect width="25" height="16"/>
</clipPath>
<g id="surface43" clip-path="url(#clip39)">
<g clip-path="url(#clip40)" clip-rule="nonzero">
<path style=" stroke:none;fill-rule:nonzero;fill:rgb(0%,48.199463%,100%);fill-opacity:1;" d="M 24.355469 8.304688 C 24.355469 12.480469 19.046875 15.867188 12.496094 15.867188 C 5.945313 15.867188 0.632813 12.480469 0.632813 8.304688 C 0.632813 4.132813 5.945313 0.746094 12.496094 0.746094 C 19.046875 0.746094 24.355469 4.132813 24.355469 8.304688 "/>
</g>
</g>
<clipPath id="clip41">
  <path d="M 328.761719 64.761719 L 338.496094 64.761719 L 338.496094 70.96875 L 328.761719 70.96875 Z M 328.761719 64.761719 "/>
</clipPath>
<mask id="mask13">
  <g filter="url(#alpha)">
<rect x="0" y="0" width="500" height="372.61" style="fill:rgb(0%,0%,0%);fill-opacity:0.300003;stroke:none;"/>
  </g>
</mask>
<clipPath id="clip43">
  <path d="M 0.761719 0.761719 L 10.496094 0.761719 L 10.496094 6.96875 L 0.761719 6.96875 Z M 0.761719 0.761719 "/>
</clipPath>
<clipPath id="clip42">
  <rect width="11" height="7"/>
</clipPath>
<g id="surface42" clip-path="url(#clip42)">
<g clip-path="url(#clip43)" clip-rule="nonzero">
<path style=" stroke:none;fill-rule:nonzero;fill:rgb(0%,48.199463%,100%);fill-opacity:1;" d="M 10.496094 3.867188 C 10.496094 5.578125 8.316406 6.96875 5.628906 6.96875 C 2.9375 6.96875 0.761719 5.578125 0.761719 3.867188 C 0.761719 2.152344 2.9375 0.761719 5.628906 0.761719 C 8.316406 0.761719 10.496094 2.152344 10.496094 3.867188 "/>
</g>
</g>
</defs>
<g id="surface1">
<path style=" stroke:none;fill-rule:nonzero;fill:rgb(92.199707%,92.199707%,92.199707%);fill-opacity:1;" d="M 0 327.695313 L 500 327.695313 L 500 327.449219 L 0 327.449219 Z M 0 327.695313 "/>
<path style=" stroke:none;fill-rule:nonzero;fill:rgb(92.199707%,92.199707%,92.199707%);fill-opacity:1;" d="M 290.207031 334.507813 L 315.667969 334.507813 L 315.667969 334.257813 L 290.207031 334.257813 Z M 290.207031 334.507813 "/>
<path style=" stroke:none;fill-rule:nonzero;fill:rgb(92.199707%,92.199707%,92.199707%);fill-opacity:1;" d="M 395.113281 339.917969 L 455.445313 339.917969 L 455.445313 339.667969 L 395.113281 339.667969 Z M 395.113281 339.917969 "/>
<path style=" stroke:none;fill-rule:nonzero;fill:rgb(92.199707%,92.199707%,92.199707%);fill-opacity:1;" d="M 222.460938 334.632813 L 284.792969 334.632813 L 284.792969 334.382813 L 222.460938 334.382813 Z M 222.460938 334.632813 "/>
<path style=" stroke:none;fill-rule:nonzero;fill:rgb(92.199707%,92.199707%,92.199707%);fill-opacity:1;" d="M 169 342.113281 L 182.039063 342.113281 L 182.039063 341.863281 L 169 341.863281 Z M 169 342.113281 "/>
<path style=" stroke:none;fill-rule:nonzero;fill:rgb(92.199707%,92.199707%,92.199707%);fill-opacity:1;" d="M 194.707031 342.113281 L 254.085938 342.113281 L 254.085938 341.863281 L 194.707031 341.863281 Z M 194.707031 342.113281 "/>
<path style=" stroke:none;fill-rule:nonzero;fill:rgb(92.199707%,92.199707%,92.199707%);fill-opacity:1;" d="M 52.460938 337.890625 L 90.910156 337.890625 L 90.910156 337.640625 L 52.460938 337.640625 Z M 52.460938 337.890625 "/>
<path style=" stroke:none;fill-rule:nonzero;fill:rgb(92.199707%,92.199707%,92.199707%);fill-opacity:1;" d="M 43.914063 0.25 C 40.90625 0.25 38.457031 2.699219 38.457031 5.710938 L 38.457031 277.140625 C 38.457031 280.148438 40.90625 282.597656 43.914063 282.597656 L 237.015625 282.597656 C 240.023438 282.597656 242.472656 280.148438 242.472656 277.140625 L 242.472656 5.710938 C 242.472656 2.699219 240.023438 0.25 237.015625 0.25 Z M 237.015625 282.847656 L 43.914063 282.847656 C 40.769531 282.847656 38.207031 280.289063 38.207031 277.140625 L 38.207031 5.710938 C 38.207031 2.5625 40.769531 0 43.914063 0 L 237.015625 0 C 240.160156 0 242.722656 2.5625 242.722656 5.710938 L 242.722656 277.140625 C 242.722656 280.289063 240.160156 282.847656 237.015625 282.847656 "/>
<path style=" stroke:none;fill-rule:nonzero;fill:rgb(92.199707%,92.199707%,92.199707%);fill-opacity:1;" d="M 260.210938 0.25 C 257.203125 0.25 254.753906 2.699219 254.753906 5.710938 L 254.753906 277.140625 C 254.753906 280.148438 257.203125 282.597656 260.210938 282.597656 L 453.3125 282.597656 C 456.320313 282.597656 458.769531 280.148438 458.769531 277.140625 L 458.769531 5.710938 C 458.769531 2.699219 456.320313 0.25 453.3125 0.25 Z M 453.3125 282.847656 L 260.210938 282.847656 C 257.066406 282.847656 254.503906 280.289063 254.503906 277.140625 L 254.503906 5.710938 C 254.503906 2.5625 257.066406 0 260.210938 0 L 453.3125 0 C 456.457031 0 459.019531 2.5625 459.019531 5.710938 L 459.019531 277.140625 C 459.019531 280.289063 456.457031 282.847656 453.3125 282.847656 "/>
<path style=" stroke:none;fill-rule:nonzero;fill:rgb(90.19928%,90.19928%,90.19928%);fill-opacity:1;" d="M 195.960938 240.714844 L 129.5625 240.714844 L 125.53125 194.214844 L 191.929688 194.214844 Z M 195.960938 240.714844 "/>
<path style=" stroke:none;fill-rule:nonzero;fill:rgb(94.099426%,94.099426%,94.099426%);fill-opacity:1;" d="M 199.402344 240.714844 L 133 240.714844 L 128.96875 194.214844 L 195.371094 194.214844 Z M 199.402344 240.714844 "/>
<path style=" stroke:none;fill-rule:nonzero;fill:rgb(100%,100%,100%);fill-opacity:1;" d="M 142.078125 230.730469 L 139.863281 204.199219 L 186.292969 204.199219 L 188.507813 230.730469 Z M 142.078125 230.730469 "/>
<path style=" stroke:none;fill-rule:nonzero;fill:rgb(90.19928%,90.19928%,90.19928%);fill-opacity:1;" d="M 203.097656 327.445313 L 210.890625 327.445313 L 210.890625 240.714844 L 203.097656 240.714844 Z M 203.097656 327.445313 "/>
<path style=" stroke:none;fill-rule:nonzero;fill:rgb(94.099426%,94.099426%,94.099426%);fill-opacity:1;" d="M 207.9375 327.445313 L 213.347656 327.445313 L 213.347656 240.714844 L 207.9375 240.714844 Z M 207.9375 327.445313 "/>
<path style=" stroke:none;fill-rule:nonzero;fill:rgb(94.099426%,94.099426%,94.099426%);fill-opacity:1;" d="M 137.9375 250.289063 L 213.347656 250.289063 L 213.347656 240.714844 L 137.9375 240.714844 Z M 137.9375 250.289063 "/>
<path style=" stroke:none;fill-rule:nonzero;fill:rgb(90.19928%,90.19928%,90.19928%);fill-opacity:1;" d="M 132.8125 327.445313 L 140.605469 327.445313 L 140.605469 250.289063 L 132.8125 250.289063 Z M 132.8125 327.445313 "/>
<path style=" stroke:none;fill-rule:nonzero;fill:rgb(94.099426%,94.099426%,94.099426%);fill-opacity:1;" d="M 137.652344 327.445313 L 143.0625 327.445313 L 143.0625 250.289063 L 137.652344 250.289063 Z M 137.652344 327.445313 "/>
<path style=" stroke:none;fill-rule:nonzero;fill:rgb(90.19928%,90.19928%,90.19928%);fill-opacity:1;" d="M 77.355469 327.445313 L 85.148438 327.445313 L 85.148438 250.289063 L 77.355469 250.289063 Z M 77.355469 327.445313 "/>
<path style=" stroke:none;fill-rule:nonzero;fill:rgb(94.099426%,94.099426%,94.099426%);fill-opacity:1;" d="M 82.195313 327.445313 L 87.605469 327.445313 L 87.605469 250.289063 L 82.195313 250.289063 Z M 82.195313 327.445313 "/>
<path style=" stroke:none;fill-rule:nonzero;fill:rgb(90.19928%,90.19928%,90.19928%);fill-opacity:1;" d="M 153.796875 327.445313 L 161.585938 327.445313 L 161.585938 250.289063 L 153.796875 250.289063 Z M 153.796875 327.445313 "/>
<path style=" stroke:none;fill-rule:nonzero;fill:rgb(94.099426%,94.099426%,94.099426%);fill-opacity:1;" d="M 158.632813 327.445313 L 164.046875 327.445313 L 164.046875 250.289063 L 158.632813 250.289063 Z M 158.632813 327.445313 "/>
<path style=" stroke:none;fill-rule:nonzero;fill:rgb(90.19928%,90.19928%,90.19928%);fill-opacity:1;" d="M 77.355469 250.289063 L 137.9375 250.289063 L 137.9375 240.714844 L 77.355469 240.714844 Z M 77.355469 250.289063 "/>
<path style=" stroke:none;fill-rule:nonzero;fill:rgb(87.799072%,87.799072%,87.799072%);fill-opacity:1;" d="M 129.507813 154.917969 L 363.839844 154.917969 L 363.839844 24.460938 L 129.507813 24.460938 Z M 129.507813 154.917969 "/>
<path style=" stroke:none;fill-rule:nonzero;fill:rgb(96.099854%,96.099854%,96.099854%);fill-opacity:1;" d="M 130.691406 154.917969 L 376.707031 154.917969 L 376.707031 24.460938 L 130.691406 24.460938 Z M 130.691406 154.917969 "/>
<path style=" stroke:none;fill-rule:nonzero;fill:rgb(100%,100%,100%);fill-opacity:1;" d="M 134.710938 150.898438 L 372.6875 150.898438 L 372.6875 28.480469 L 134.710938 28.480469 Z M 134.710938 150.898438 "/>
<path style=" stroke:none;fill-rule:nonzero;fill:rgb(96.099854%,96.099854%,96.099854%);fill-opacity:1;" d="M 231.066406 150.898438 L 275.996094 28.480469 L 201.84375 28.480469 L 156.914063 150.898438 Z M 231.066406 150.898438 "/>
<path style=" stroke:none;fill-rule:nonzero;fill:rgb(96.099854%,96.099854%,96.099854%);fill-opacity:1;" d="M 302.441406 150.898438 L 347.371094 28.480469 L 291.433594 28.480469 L 246.503906 150.898438 Z M 302.441406 150.898438 "/>
<path style=" stroke:none;fill-rule:nonzero;fill:rgb(90.19928%,90.19928%,90.19928%);fill-opacity:1;" d="M 418.191406 327.445313 L 438.109375 327.445313 L 438.109375 202.851563 L 418.191406 202.851563 Z M 418.191406 327.445313 "/>
<path style=" stroke:none;fill-rule:nonzero;fill:rgb(97.999573%,97.999573%,97.999573%);fill-opacity:1;" d="M 432.871094 327.445313 L 438.109375 327.445313 L 438.109375 317.851563 L 427.382813 317.851563 Z M 432.871094 327.445313 "/>
<path style=" stroke:none;fill-rule:nonzero;fill:rgb(90.19928%,90.19928%,90.19928%);fill-opacity:1;" d="M 234.535156 327.445313 L 254.453125 327.445313 L 254.453125 202.851563 L 234.535156 202.851563 Z M 234.535156 327.445313 "/>
<path style=" stroke:none;fill-rule:nonzero;fill:rgb(97.999573%,97.999573%,97.999573%);fill-opacity:1;" d="M 249.882813 324.859375 L 438.109375 324.859375 L 438.109375 202.851563 L 249.882813 202.851563 Z M 249.882813 324.859375 "/>
<path style=" stroke:none;fill-rule:nonzero;fill:rgb(90.19928%,90.19928%,90.19928%);fill-opacity:1;" d="M 254.445313 241.21875 L 433.546875 241.21875 L 433.546875 208.757813 L 254.445313 208.757813 Z M 434.546875 242.21875 L 253.445313 242.21875 L 253.445313 207.757813 L 434.546875 207.757813 Z M 434.546875 242.21875 "/>
<path style=" stroke:none;fill-rule:nonzero;fill:rgb(90.19928%,90.19928%,90.19928%);fill-opacity:1;" d="M 276.140625 213.074219 C 279.523438 219.703125 284.125 223.488281 288.84375 223.488281 L 402.667969 223.488281 C 407.386719 223.488281 411.988281 219.703125 415.371094 213.074219 Z M 402.667969 224.488281 L 288.84375 224.488281 C 283.558594 224.488281 278.46875 220.226563 274.886719 212.792969 L 274.539063 212.074219 L 416.972656 212.074219 L 416.628906 212.792969 C 413.042969 220.226563 407.953125 224.488281 402.667969 224.488281 "/>
<path style=" stroke:none;fill-rule:nonzero;fill:rgb(97.999573%,97.999573%,97.999573%);fill-opacity:1;" d="M 255.121094 327.445313 L 249.882813 327.445313 L 249.882813 317.851563 L 260.613281 317.851563 Z M 255.121094 327.445313 "/>
<path style=" stroke:none;fill-rule:nonzero;fill:rgb(90.19928%,90.19928%,90.19928%);fill-opacity:1;" d="M 254.445313 280.085938 L 433.546875 280.085938 L 433.546875 247.625 L 254.445313 247.625 Z M 434.546875 281.085938 L 253.445313 281.085938 L 253.445313 246.625 L 434.546875 246.625 Z M 434.546875 281.085938 "/>
<path style=" stroke:none;fill-rule:nonzero;fill:rgb(90.19928%,90.19928%,90.19928%);fill-opacity:1;" d="M 276.140625 251.941406 C 279.523438 258.570313 284.125 262.355469 288.84375 262.355469 L 402.667969 262.355469 C 407.386719 262.355469 411.988281 258.570313 415.371094 251.941406 Z M 402.667969 263.355469 L 288.84375 263.355469 C 283.558594 263.355469 278.46875 259.09375 274.886719 251.65625 L 274.539063 250.941406 L 416.972656 250.941406 L 416.628906 251.65625 C 413.042969 259.09375 407.953125 263.355469 402.667969 263.355469 "/>
<path style=" stroke:none;fill-rule:nonzero;fill:rgb(90.19928%,90.19928%,90.19928%);fill-opacity:1;" d="M 254.445313 318.949219 L 433.546875 318.949219 L 433.546875 286.492188 L 254.445313 286.492188 Z M 434.546875 319.949219 L 253.445313 319.949219 L 253.445313 285.492188 L 434.546875 285.492188 Z M 434.546875 319.949219 "/>
<path style=" stroke:none;fill-rule:nonzero;fill:rgb(90.19928%,90.19928%,90.19928%);fill-opacity:1;" d="M 276.140625 290.808594 C 279.523438 297.4375 284.125 301.222656 288.84375 301.222656 L 402.667969 301.222656 C 407.386719 301.222656 411.988281 297.4375 415.371094 290.808594 Z M 402.667969 302.222656 L 288.84375 302.222656 C 283.558594 302.222656 278.46875 297.957031 274.886719 290.523438 L 274.539063 289.808594 L 416.972656 289.808594 L 416.628906 290.523438 C 413.042969 297.957031 407.953125 302.222656 402.667969 302.222656 "/>
<path style=" stroke:none;fill-rule:nonzero;fill:rgb(90.19928%,90.19928%,90.19928%);fill-opacity:1;" d="M 120.984375 219.332031 L 120.984375 221.75 L 119.433594 221.75 L 118.15625 240.714844 L 99.320313 240.714844 L 98.046875 221.75 L 96.496094 221.75 L 96.496094 219.332031 "/>
<path style=" stroke:none;fill-rule:nonzero;fill:rgb(90.19928%,90.19928%,90.19928%);fill-opacity:1;" d="M 114.785156 172.261719 C 113.234375 160.960938 97.988281 157.734375 78.640625 157.320313 C 60.230469 156.929688 54.332031 150.414063 54.332031 150.414063 C 54.332031 150.414063 54.390625 176.792969 80.921875 186.34375 C 106.113281 195.410156 116.335938 183.574219 114.785156 172.261719 "/>
<path style=" stroke:none;fill-rule:nonzero;fill:rgb(90.19928%,90.19928%,90.19928%);fill-opacity:1;" d="M 105.378906 197.871094 C 105.703125 193.226563 113.121094 184.6875 130.964844 188.570313 C 143.871094 191.375 148.664063 184.6875 148.664063 184.6875 C 148.664063 184.6875 147.472656 203.566406 128.066406 209.242188 C 109.636719 214.632813 104.8125 206.042969 105.378906 197.871094 "/>
<path style=" stroke:none;fill-rule:nonzero;fill:rgb(90.19928%,90.19928%,90.19928%);fill-opacity:1;" d="M 109.449219 226.453125 C 109.644531 226.453125 109.839844 226.367188 109.976563 226.207031 C 111.269531 224.679688 110.210938 221.019531 108.746094 215.949219 C 106.867188 209.445313 104.527344 201.351563 106.507813 195.476563 C 107.628906 192.15625 109.011719 189.230469 110.347656 186.402344 C 113.148438 180.476563 115.566406 175.363281 113.550781 170.019531 C 113.414063 169.664063 113.019531 169.484375 112.664063 169.617188 C 112.308594 169.753906 112.128906 170.152344 112.261719 170.507813 C 114.074219 175.304688 111.882813 179.941406 109.105469 185.8125 C 107.8125 188.546875 106.347656 191.640625 105.203125 195.035156 C 103.085938 201.320313 105.492188 209.644531 107.425781 216.332031 C 108.5625 220.277344 109.742188 224.351563 108.925781 225.320313 C 108.679688 225.609375 108.714844 226.042969 109.007813 226.289063 C 109.136719 226.398438 109.292969 226.453125 109.449219 226.453125 "/>
<g clip-path="url(#clip1)" clip-rule="nonzero">
<path style=" stroke:none;fill-rule:nonzero;fill:rgb(96.099854%,96.099854%,96.099854%);fill-opacity:1;" d="M 443.890625 361.285156 C 443.890625 367.539063 357.082031 372.609375 250 372.609375 C 142.917969 372.609375 56.109375 367.539063 56.109375 361.285156 C 56.109375 355.035156 142.917969 349.964844 250 349.964844 C 357.082031 349.964844 443.890625 355.035156 443.890625 361.285156 "/>
</g>
<path style=" stroke:none;fill-rule:nonzero;fill:rgb(0%,48.199463%,100%);fill-opacity:1;" d="M 249.960938 306.097656 L 107.960938 306.097656 L 100.1875 77.730469 L 242.1875 77.730469 Z M 249.960938 306.097656 "/>
<path style=" stroke:none;fill-rule:nonzero;fill:rgb(0%,48.199463%,100%);fill-opacity:1;" d="M 257.046875 299.011719 L 115.046875 299.011719 L 107.273438 70.644531 L 249.273438 70.644531 Z M 257.046875 299.011719 "/>
<g clip-path="url(#clip2)" clip-rule="nonzero">
<use xlink:href="#surface7" transform="matrix(1,0,0,1,107,70)" mask="url(#mask0)"/>
</g>
<path style=" stroke:none;fill-rule:nonzero;fill:rgb(0%,48.199463%,100%);fill-opacity:1;" d="M 220.445313 136.140625 C 221.199219 158.203125 203.921875 176.085938 181.863281 176.085938 C 159.804688 176.085938 141.3125 158.203125 140.558594 136.140625 C 139.808594 114.082031 157.085938 96.199219 179.144531 96.199219 C 201.203125 96.199219 219.695313 114.082031 220.445313 136.140625 "/>
<path style=" stroke:none;fill-rule:nonzero;fill:rgb(100%,100%,100%);fill-opacity:1;" d="M 213.46875 136.136719 C 213.664063 141.828125 212.402344 147.175781 210.019531 151.839844 C 204.808594 162.113281 194.15625 169.101563 181.625 169.101563 C 169.09375 169.101563 157.964844 162.113281 152.054688 151.839844 C 149.355469 147.175781 147.730469 141.828125 147.535156 136.136719 C 146.917969 117.929688 161.171875 103.171875 179.382813 103.171875 C 197.589844 103.171875 212.847656 117.929688 213.46875 136.136719 "/>
<g clip-path="url(#clip5)" clip-rule="nonzero">
<use xlink:href="#surface10" transform="matrix(1,0,0,1,152,143)" mask="url(#mask1)"/>
</g>
<g clip-path="url(#clip8)" clip-rule="nonzero">
<use xlink:href="#surface13" transform="matrix(1,0,0,1,165,110)" mask="url(#mask2)"/>
</g>
<path style=" stroke:none;fill-rule:nonzero;fill:rgb(100%,100%,100%);fill-opacity:1;" d="M 228.523438 216.308594 L 137.941406 216.308594 L 137.328125 198.308594 L 227.910156 198.308594 Z M 228.523438 216.308594 "/>
<path style=" stroke:none;fill-rule:nonzero;fill:rgb(100%,100%,100%);fill-opacity:1;" d="M 229.621094 248.484375 L 139.035156 248.484375 L 138.421875 230.484375 L 229.007813 230.484375 Z M 229.621094 248.484375 "/>
<path style=" stroke:none;fill-rule:nonzero;fill:rgb(0%,48.199463%,100%);fill-opacity:1;" d="M 188.386719 247.777344 L 184.433594 248.3125 L 184.035156 243.59375 C 183.195313 243.222656 182.585938 242.476563 182.414063 241.597656 C 182.132813 240.164063 183.097656 238.839844 184.566406 238.640625 C 186.03125 238.441406 187.449219 239.441406 187.730469 240.871094 C 187.902344 241.753906 187.609375 242.621094 186.953125 243.195313 Z M 194.65625 232.957031 L 172.828125 235.925781 C 171.933594 236.046875 171.34375 236.863281 171.511719 237.730469 L 174.378906 252.359375 C 174.550781 253.234375 175.421875 253.847656 176.316406 253.722656 L 198.148438 250.753906 C 199.042969 250.632813 199.636719 249.820313 199.464844 248.949219 L 196.597656 234.320313 C 196.425781 233.453125 195.554688 232.835938 194.65625 232.957031 "/>
<path style=" stroke:none;fill-rule:nonzero;fill:rgb(0%,48.199463%,100%);fill-opacity:1;" d="M 192.503906 232.171875 C 191.707031 232.28125 190.9375 231.738281 190.785156 230.960938 L 190.503906 229.53125 C 189.730469 225.589844 185.964844 222.613281 181.882813 222.96875 C 177.523438 223.347656 174.601563 227.199219 175.414063 231.363281 L 175.738281 233.007813 C 175.890625 233.785156 175.367188 234.503906 174.570313 234.609375 C 173.773438 234.71875 173.003906 234.179688 172.851563 233.402344 L 172.578125 232.007813 C 171.5 226.511719 174.960938 221.234375 180.550781 220.261719 C 186.429688 219.234375 192.230469 223.199219 193.351563 228.925781 L 193.671875 230.570313 C 193.824219 231.347656 193.300781 232.0625 192.503906 232.171875 "/>
<path style=" stroke:none;fill-rule:nonzero;fill:rgb(0%,48.199463%,100%);fill-opacity:1;" d="M 214.664063 273.6875 L 155.703125 273.6875 L 155.304688 261.972656 L 214.269531 261.972656 Z M 214.664063 273.6875 "/>
<path style=" stroke:none;fill-rule:nonzero;fill:rgb(9.799194%,17.999268%,20.799255%);fill-opacity:1;" d="M 186.21875 207.308594 C 186.28125 209.128906 184.855469 210.601563 183.039063 210.601563 C 181.21875 210.601563 179.695313 209.128906 179.632813 207.308594 C 179.570313 205.492188 180.996094 204.019531 182.8125 204.019531 C 184.632813 204.019531 186.15625 205.492188 186.21875 207.308594 "/>
<path style=" stroke:none;fill-rule:nonzero;fill:rgb(9.799194%,17.999268%,20.799255%);fill-opacity:1;" d="M 172.046875 207.308594 C 172.105469 209.128906 170.683594 210.601563 168.863281 210.601563 C 167.046875 210.601563 165.523438 209.128906 165.460938 207.308594 C 165.398438 205.492188 166.820313 204.019531 168.640625 204.019531 C 170.460938 204.019531 171.984375 205.492188 172.046875 207.308594 "/>
<path style=" stroke:none;fill-rule:nonzero;fill:rgb(9.799194%,17.999268%,20.799255%);fill-opacity:1;" d="M 157.871094 207.308594 C 157.933594 209.128906 156.511719 210.601563 154.691406 210.601563 C 152.871094 210.601563 151.351563 209.128906 151.289063 207.308594 C 151.226563 205.492188 152.648438 204.019531 154.46875 204.019531 C 156.285156 204.019531 157.808594 205.492188 157.871094 207.308594 "/>
<path style=" stroke:none;fill-rule:nonzero;fill:rgb(9.799194%,17.999268%,20.799255%);fill-opacity:1;" d="M 200.390625 207.308594 C 200.453125 209.128906 199.027344 210.601563 197.210938 210.601563 C 195.390625 210.601563 193.867188 209.128906 193.808594 207.308594 C 193.746094 205.492188 195.167969 204.019531 196.988281 204.019531 C 198.804688 204.019531 200.328125 205.492188 200.390625 207.308594 "/>
<path style=" stroke:none;fill-rule:nonzero;fill:rgb(9.799194%,17.999268%,20.799255%);fill-opacity:1;" d="M 214.5625 207.308594 C 214.628906 209.128906 213.203125 210.601563 211.382813 210.601563 C 209.566406 210.601563 208.039063 209.128906 207.980469 207.308594 C 207.917969 205.492188 209.339844 204.019531 211.160156 204.019531 C 212.980469 204.019531 214.503906 205.492188 214.5625 207.308594 "/>
<path style=" stroke:none;fill-rule:nonzero;fill:rgb(100%,54.899597%,48.199463%);fill-opacity:1;" d="M 333.910156 119.328125 C 335.242188 121.464844 336.347656 123.515625 337.488281 125.640625 C 338.628906 127.746094 339.660156 129.914063 340.667969 132.097656 C 342.65625 136.480469 344.4375 141 345.769531 145.828125 C 345.945313 146.421875 346.082031 147.046875 346.230469 147.664063 L 346.449219 148.589844 L 346.558594 149.050781 L 346.6875 149.8125 C 346.972656 151.84375 346.722656 153.503906 346.375 154.964844 C 345.660156 157.878906 344.503906 160.203125 343.265625 162.421875 C 340.734375 166.8125 337.78125 170.550781 334.378906 174.09375 L 330.167969 170.90625 C 332.242188 166.964844 334.296875 162.839844 335.804688 158.867188 C 336.535156 156.894531 337.152344 154.886719 337.332031 153.238281 C 337.417969 152.425781 337.359375 151.730469 337.246094 151.46875 L 336.851563 150.246094 C 336.6875 149.746094 336.542969 149.246094 336.34375 148.742188 C 334.902344 144.707031 333.070313 140.652344 331.074219 136.65625 C 329.109375 132.675781 326.929688 128.621094 324.78125 124.839844 "/>
<path style=" stroke:none;fill-rule:nonzero;fill:rgb(100%,54.899597%,48.199463%);fill-opacity:1;" d="M 331.234375 169.472656 L 326.644531 171.910156 L 331.921875 178.09375 C 331.921875 178.09375 335.21875 175.863281 335.367188 172.460938 "/>
<path style=" stroke:none;fill-rule:nonzero;fill:rgb(100%,54.899597%,48.199463%);fill-opacity:1;" d="M 320.464844 175.722656 L 326.121094 180.210938 L 331.921875 178.09375 L 326.644531 171.910156 Z M 320.464844 175.722656 "/>
<path style=" stroke:none;fill-rule:nonzero;fill:rgb(9.799194%,17.999268%,20.799255%);fill-opacity:1;" d="M 301.152344 86.613281 C 301.039063 87.167969 300.652344 87.558594 300.289063 87.484375 C 299.925781 87.410156 299.722656 86.902344 299.835938 86.34375 C 299.949219 85.789063 300.335938 85.398438 300.695313 85.472656 C 301.0625 85.546875 301.265625 86.058594 301.152344 86.613281 "/>
<path style=" stroke:none;fill-rule:nonzero;fill:rgb(100%,33.299255%,31.799316%);fill-opacity:1;" d="M 300.703125 87.570313 C 300.703125 87.570313 298.785156 90.519531 297.078125 91.785156 C 297.878906 92.902344 299.636719 92.824219 299.636719 92.824219 "/>
<path style=" stroke:none;fill-rule:nonzero;fill:rgb(100%,54.899597%,48.199463%);fill-opacity:1;" d="M 298.902344 107.1875 L 298.945313 100.632813 L 307.625 101.683594 C 307.625 101.683594 307.476563 107.316406 302.628906 108.972656 "/>
<path style=" stroke:none;fill-rule:nonzero;fill:rgb(100%,54.899597%,48.199463%);fill-opacity:1;" d="M 301.394531 95.910156 L 307.507813 97.667969 L 307.625 101.679688 L 298.945313 100.632813 Z M 301.394531 95.910156 "/>
<g clip-path="url(#clip11)" clip-rule="nonzero">
<use xlink:href="#surface16" transform="matrix(1,0,0,1,300,95)" mask="url(#mask3)"/>
</g>
<path style=" stroke:none;fill-rule:nonzero;fill:rgb(9.799194%,17.999268%,20.799255%);fill-opacity:1;" d="M 303.8125 83.941406 C 303.894531 83.941406 303.976563 83.910156 304.039063 83.851563 C 304.175781 83.726563 304.183594 83.515625 304.058594 83.378906 C 302.808594 82.027344 301.289063 82.265625 301.222656 82.277344 C 301.042969 82.308594 300.921875 82.480469 300.953125 82.660156 C 300.984375 82.84375 301.15625 82.964844 301.335938 82.933594 C 301.382813 82.925781 302.570313 82.753906 303.570313 83.832031 C 303.636719 83.902344 303.722656 83.941406 303.8125 83.941406 "/>
<path style=" stroke:none;fill-rule:nonzero;fill:rgb(100%,54.899597%,48.199463%);fill-opacity:1;" d="M 316.589844 96.730469 C 315.582031 101.878906 314.972656 109.007813 318.570313 112.441406 C 318.570313 112.441406 317.164063 117.660156 307.605469 117.660156 C 297.089844 117.660156 302.546875 113.078125 302.546875 113.078125 C 306.914063 111.722656 306.878906 106.746094 305.878906 102.746094 "/>
<path style=" stroke:none;fill-rule:nonzero;fill:rgb(0%,48.199463%,100%);fill-opacity:1;" d="M 320.539063 115.882813 C 321.480469 114.554688 321.441406 110.367188 320.441406 109.628906 C 318.828125 108.433594 311.925781 108.160156 302.625 110.300781 C 303.628906 114.355469 301.480469 116.484375 301.480469 116.484375 "/>
<path style=" stroke:none;fill-rule:nonzero;fill:rgb(0%,48.199463%,100%);fill-opacity:1;" d="M 350.652344 352.160156 C 350.578125 352.175781 350.511719 352.199219 350.453125 352.226563 C 350.324219 352.289063 350.238281 352.382813 350.203125 352.511719 C 350.113281 352.808594 350.222656 352.90625 350.261719 352.933594 C 350.640625 353.257813 352.042969 352.960938 353.03125 352.566406 C 352.363281 352.328125 351.277344 352.027344 350.652344 352.160156 M 351.796875 353.285156 C 351.089844 353.4375 350.382813 353.476563 350.046875 353.1875 C 349.902344 353.070313 349.757813 352.835938 349.882813 352.414063 C 349.949219 352.195313 350.09375 352.03125 350.3125 351.925781 C 351.261719 351.472656 353.445313 352.363281 353.535156 352.398438 C 353.597656 352.425781 353.636719 352.484375 353.640625 352.550781 C 353.640625 352.613281 353.605469 352.675781 353.546875 352.703125 C 353.210938 352.867188 352.503906 353.132813 351.796875 353.285156 "/>
<path style=" stroke:none;fill-rule:nonzero;fill:rgb(0%,48.199463%,100%);fill-opacity:1;" d="M 351.519531 350.230469 C 351.492188 350.234375 351.46875 350.242188 351.445313 350.25 C 351.238281 350.320313 351.242188 350.421875 351.242188 350.464844 C 351.253906 350.9375 352.378906 351.886719 353.199219 352.269531 C 352.996094 351.707031 352.523438 350.597656 351.921875 350.292969 C 351.785156 350.222656 351.652344 350.199219 351.519531 350.230469 M 353.507813 352.714844 C 353.480469 352.722656 353.453125 352.722656 353.425781 352.714844 C 352.632813 352.480469 350.929688 351.273438 350.910156 350.476563 C 350.90625 350.332031 350.957031 350.066406 351.335938 349.9375 C 351.582031 349.851563 351.828125 349.871094 352.074219 349.996094 C 353.015625 350.476563 353.609375 352.421875 353.632813 352.507813 C 353.648438 352.5625 353.636719 352.628906 353.589844 352.671875 C 353.566406 352.695313 353.539063 352.710938 353.507813 352.714844 "/>
<path style=" stroke:none;fill-rule:nonzero;fill:rgb(0%,48.199463%,100%);fill-opacity:1;" d="M 298.75 353.101563 C 298.632813 353.101563 298.523438 353.113281 298.425781 353.140625 C 298.273438 353.183594 298.164063 353.257813 298.101563 353.371094 C 297.984375 353.578125 298.027344 353.683594 298.066406 353.742188 C 298.394531 354.195313 300.171875 354.207031 301.480469 354.023438 C 300.828125 353.6875 299.570313 353.101563 298.75 353.101563 M 299.863281 354.464844 C 298.960938 354.464844 298.089844 354.339844 297.796875 353.9375 C 297.695313 353.792969 297.613281 353.554688 297.8125 353.207031 C 297.921875 353.015625 298.101563 352.882813 298.339844 352.816406 C 299.511719 352.5 301.96875 353.902344 302.074219 353.960938 C 302.132813 353.996094 302.164063 354.0625 302.152344 354.132813 C 302.144531 354.199219 302.089844 354.253906 302.023438 354.269531 C 301.574219 354.359375 300.707031 354.464844 299.863281 354.464844 "/>
<path style=" stroke:none;fill-rule:nonzero;fill:rgb(0%,48.199463%,100%);fill-opacity:1;" d="M 300.273438 351.421875 C 300.238281 351.421875 300.207031 351.421875 300.171875 351.425781 C 299.875 351.457031 299.855469 351.574219 299.847656 351.613281 C 299.769531 352.089844 300.914063 353.285156 301.78125 353.804688 C 301.691406 353.253906 301.4375 352.121094 300.851563 351.636719 C 300.675781 351.492188 300.484375 351.421875 300.273438 351.421875 M 301.988281 354.273438 C 301.964844 354.273438 301.941406 354.265625 301.921875 354.257813 C 301.070313 353.875 299.390625 352.355469 299.519531 351.558594 C 299.550781 351.375 299.683594 351.140625 300.140625 351.09375 C 300.480469 351.058594 300.789063 351.15625 301.0625 351.378906 C 301.957031 352.113281 302.148438 354.007813 302.15625 354.089844 C 302.160156 354.148438 302.136719 354.207031 302.085938 354.238281 C 302.058594 354.261719 302.023438 354.273438 301.988281 354.273438 "/>
<path style=" stroke:none;fill-rule:nonzero;fill:rgb(100%,54.899597%,48.199463%);fill-opacity:1;" d="M 309.722656 354.105469 L 302.6875 354.105469 L 301.988281 337.816406 L 309.023438 337.816406 Z M 309.722656 354.105469 "/>
<path style=" stroke:none;fill-rule:nonzero;fill:rgb(100%,54.899597%,48.199463%);fill-opacity:1;" d="M 361.347656 350.847656 L 354.472656 352.335938 L 347.574219 337.164063 L 354.445313 335.675781 Z M 361.347656 350.847656 "/>
<path style=" stroke:none;fill-rule:nonzero;fill:rgb(9.799194%,17.999268%,20.799255%);fill-opacity:1;" d="M 353.8125 351.648438 L 361.535156 349.976563 C 361.816406 349.914063 362.105469 350.058594 362.222656 350.316406 L 364.90625 356.132813 C 365.183594 356.738281 364.816406 357.445313 364.164063 357.574219 C 361.457031 358.113281 360.113281 358.238281 356.714844 358.972656 C 354.628906 359.425781 349.910156 360.574219 347.023438 361.199219 C 344.203125 361.808594 343.144531 359.050781 344.269531 358.539063 C 349.316406 356.230469 351.425781 354.203125 352.789063 352.3125 C 353.035156 351.96875 353.402344 351.734375 353.8125 351.648438 "/>
<path style=" stroke:none;fill-rule:nonzero;fill:rgb(9.799194%,17.999268%,20.799255%);fill-opacity:1;" d="M 302.734375 353.289063 L 310.417969 353.289063 C 310.703125 353.289063 310.953125 353.492188 311.015625 353.769531 L 312.40625 360.023438 C 312.550781 360.671875 312.058594 361.285156 311.394531 361.273438 C 308.621094 361.226563 304.617188 361.0625 301.136719 361.0625 C 297.0625 361.0625 293.546875 361.285156 288.773438 361.285156 C 285.882813 361.285156 285.082031 358.367188 286.289063 358.101563 C 291.792969 356.898438 296.285156 356.769531 301.042969 353.839844 C 301.558594 353.519531 302.128906 353.289063 302.734375 353.289063 "/>
<path style=" stroke:none;fill-rule:nonzero;fill:rgb(0%,48.199463%,100%);fill-opacity:1;" d="M 331.164063 114.03125 C 337.757813 115.542969 343.195313 132.371094 343.195313 132.371094 L 329.957031 142.460938 C 329.957031 142.460938 325.097656 137.882813 322.933594 129.460938 C 320.667969 120.640625 324.425781 112.484375 331.164063 114.03125 "/>
<g clip-path="url(#clip14)" clip-rule="nonzero">
<use xlink:href="#surface19" transform="matrix(1,0,0,1,322,113)" mask="url(#mask4)"/>
</g>
<path style=" stroke:none;fill-rule:nonzero;fill:rgb(100%,54.899597%,48.199463%);fill-opacity:1;" d="M 296.503906 134.113281 C 294.855469 135.890625 293.214844 137.46875 291.519531 139.09375 C 290.671875 139.902344 289.8125 140.695313 288.933594 141.472656 L 287.601563 142.636719 L 287.269531 142.925781 C 287.105469 143.0625 286.910156 143.226563 286.699219 143.390625 C 286.257813 143.714844 285.777344 144.09375 284.765625 144.53125 C 284.230469 144.738281 283.542969 145.007813 282.335938 145.03125 C 281.757813 145.042969 280.980469 144.941406 280.234375 144.660156 C 279.472656 144.378906 278.738281 143.890625 278.234375 143.386719 C 277.1875 142.335938 276.871094 141.414063 276.664063 140.800781 C 276.476563 140.160156 276.417969 139.707031 276.378906 139.3125 C 276.316406 138.535156 276.355469 138.011719 276.398438 137.523438 C 276.445313 137.042969 276.511719 136.628906 276.585938 136.238281 C 276.878906 134.695313 277.296875 133.449219 277.746094 132.203125 C 278.203125 130.972656 278.710938 129.785156 279.300781 128.59375 C 279.9375 127.316406 280.546875 126.394531 281.160156 125.328125 C 283.628906 121.199219 286.53125 117.425781 289.609375 113.871094 C 292.757813 110.339844 296.0625 107.113281 299.863281 104.152344 L 303.542969 107.941406 C 300.960938 111.398438 298.414063 115.105469 296.066406 118.761719 C 293.71875 122.445313 291.542969 126.195313 289.667969 130.007813 C 289.234375 130.949219 288.703125 131.980469 288.402344 132.769531 C 288.050781 133.628906 287.730469 134.554688 287.464844 135.46875 C 287.203125 136.367188 286.992188 137.304688 286.898438 137.992188 C 286.878906 138.15625 286.867188 138.304688 286.867188 138.386719 C 286.863281 138.464844 286.882813 138.507813 286.871094 138.296875 C 286.863281 138.179688 286.851563 138.007813 286.746094 137.640625 C 286.621094 137.292969 286.433594 136.632813 285.589844 135.78125 C 285.183594 135.382813 284.574219 134.964844 283.941406 134.738281 C 283.332031 134.5 282.691406 134.429688 282.257813 134.429688 C 281.335938 134.449219 280.921875 134.640625 280.644531 134.738281 C 280.15625 134.949219 280.144531 135.007813 280.152344 134.984375 L 280.535156 134.636719 L 281.734375 133.535156 L 284.128906 131.296875 C 285.710938 129.804688 287.300781 128.214844 288.804688 126.738281 "/>
<g clip-path="url(#clip17)" clip-rule="nonzero">
<use xlink:href="#surface22" transform="matrix(1,0,0,1,322,126)" mask="url(#mask5)"/>
</g>
<path style=" stroke:none;fill-rule:nonzero;fill:rgb(0%,48.199463%,100%);fill-opacity:1;" d="M 289.507813 121.082031 C 288.070313 128.683594 287.171875 144.285156 291.34375 175.1875 L 328.964844 175.1875 C 329.226563 169.414063 325.597656 141.242188 331.164063 114.03125 C 331.164063 114.03125 324.71875 112.734375 318.570313 112.441406 C 313.765625 112.207031 306.804688 112.054688 302.578125 112.441406 C 300.816406 112.601563 299.085938 112.855469 297.542969 113.128906 C 293.472656 113.847656 290.277344 117.023438 289.507813 121.082031 "/>
<g clip-path="url(#clip20)" clip-rule="nonzero">
<use xlink:href="#surface25" transform="matrix(1,0,0,1,288,112)" mask="url(#mask6)"/>
</g>
<g clip-path="url(#clip23)" clip-rule="nonzero">
<use xlink:href="#surface28" transform="matrix(1,0,0,1,288,130)" mask="url(#mask7)"/>
</g>
<g clip-path="url(#clip26)" clip-rule="nonzero">
<use xlink:href="#surface31" transform="matrix(1,0,0,1,301,337)" mask="url(#mask8)"/>
</g>
<g clip-path="url(#clip29)" clip-rule="nonzero">
<use xlink:href="#surface34" transform="matrix(1,0,0,1,347,335)" mask="url(#mask9)"/>
</g>
<path style=" stroke:none;fill-rule:nonzero;fill:rgb(100%,54.899597%,48.199463%);fill-opacity:1;" d="M 319.933594 89.203125 C 318.128906 95.945313 317.410156 99.984375 313.25 102.789063 C 306.992188 107.007813 299.199219 102.164063 298.953125 95.019531 C 298.734375 88.585938 301.726563 78.640625 308.964844 77.28125 C 316.09375 75.941406 321.742188 82.460938 319.933594 89.203125 "/>
<path style=" stroke:none;fill-rule:nonzero;fill:rgb(9.799194%,17.999268%,20.799255%);fill-opacity:1;" d="M 304.148438 89.460938 C 303.8125 88.558594 302.253906 81.589844 303.71875 79.78125 C 305.179688 77.972656 321.828125 79.273438 324.289063 81.695313 C 328.375 85.714844 325.542969 89.300781 321.070313 93.929688 C 317.710938 97.410156 317.578125 101.332031 315.882813 101.910156 C 312.910156 102.917969 308.300781 101.96875 307.378906 98.796875 C 306.453125 95.625 304.148438 89.460938 304.148438 89.460938 "/>
<path style=" stroke:none;fill-rule:nonzero;fill:rgb(9.799194%,17.999268%,20.799255%);fill-opacity:1;" d="M 322.273438 73.769531 C 316.386719 71.265625 305.355469 74.035156 299.398438 72.601563 C 299.1875 75.6875 301.046875 80.632813 307.003906 81.960938 C 307.003906 81.960938 315.464844 83.609375 322.003906 83.347656 C 328.546875 83.078125 327.269531 75.898438 322.273438 73.769531 "/>
<path style=" stroke:none;fill-rule:nonzero;fill:rgb(9.799194%,17.999268%,20.799255%);fill-opacity:1;" d="M 323.195313 81.910156 C 323.195313 81.910156 326.832031 82.320313 329.414063 80.714844 C 330.519531 83.375 324.472656 84.105469 323.195313 81.910156 "/>
<path style=" stroke:none;fill-rule:nonzero;fill:rgb(100%,54.899597%,48.199463%);fill-opacity:1;" d="M 307.355469 89.738281 C 307.246094 91.5625 306.398438 93.28125 305.378906 94.40625 C 303.84375 96.09375 302.246094 95.042969 301.972656 92.984375 C 301.730469 91.132813 302.230469 88.023438 304.105469 87.089844 C 305.953125 86.171875 307.480469 87.652344 307.355469 89.738281 "/>
<path style=" stroke:none;fill-rule:nonzero;fill:rgb(0%,48.199463%,100%);fill-opacity:1;" d="M 304.691406 175.1875 C 304.691406 175.1875 312.671875 228.941406 317.054688 249.078125 C 321.855469 271.132813 347.585938 344.09375 347.585938 344.09375 L 360.175781 341.367188 C 360.175781 341.367188 342.183594 281.910156 338.15625 251.078125 C 335.0625 227.398438 328.964844 175.1875 328.964844 175.1875 "/>
<path style=" stroke:none;fill-rule:nonzero;fill:rgb(9.799194%,17.999268%,20.799255%);fill-opacity:1;" d="M 344.570313 339.890625 C 344.515625 339.902344 346.917969 344.441406 346.917969 344.441406 L 361.085938 341.375 L 359.890625 337.117188 "/>
<g clip-path="url(#clip32)" clip-rule="nonzero">
<use xlink:href="#surface37" transform="matrix(1,0,0,1,307,194)" mask="url(#mask10)"/>
</g>
<path style=" stroke:none;fill-rule:nonzero;fill:rgb(0%,48.199463%,100%);fill-opacity:1;" d="M 291.34375 175.1875 C 291.34375 175.1875 290.375 227.777344 291.140625 249.230469 C 291.9375 271.539063 299.730469 344.589844 299.730469 344.589844 L 311.644531 344.589844 C 311.644531 344.589844 312.082031 272.84375 312.613281 250.929688 C 313.191406 227.042969 316.074219 175.1875 316.074219 175.1875 "/>
<path style=" stroke:none;fill-rule:nonzero;fill:rgb(9.799194%,17.999268%,20.799255%);fill-opacity:1;" d="M 297.4375 339.84375 C 297.382813 339.84375 298.109375 344.792969 298.109375 344.792969 L 312.605469 344.792969 L 312.996094 340.375 "/>
<path style=" stroke:none;fill-rule:nonzero;fill:rgb(0%,48.199463%,100%);fill-opacity:1;" d="M 304.253906 123.390625 C 307.625 132.480469 287.8125 143.1875 287.8125 143.1875 L 279.230469 132.15625 C 279.230469 132.15625 284.953125 120.765625 291.976563 115.632813 C 300.652344 109.289063 301.683594 116.472656 304.253906 123.390625 "/>
<g clip-path="url(#clip35)" clip-rule="nonzero">
<use xlink:href="#surface40" transform="matrix(1,0,0,1,279,113)" mask="url(#mask11)"/>
</g>
<path style=" stroke:none;fill-rule:nonzero;fill:rgb(0%,48.199463%,100%);fill-opacity:1;" d="M 417.960938 31.382813 C 417.960938 44.085938 401.804688 54.382813 381.875 54.382813 C 361.945313 54.382813 345.789063 44.085938 345.789063 31.382813 C 345.789063 18.679688 361.945313 8.382813 381.875 8.382813 C 401.804688 8.382813 417.960938 18.679688 417.960938 31.382813 "/>
<path style=" stroke:none;fill-rule:nonzero;fill:rgb(100%,100%,100%);fill-opacity:1;" d="M 368.890625 27.449219 C 368.519531 27.449219 368.148438 27.488281 367.777344 27.5625 C 366.363281 27.855469 365.148438 28.679688 364.355469 29.882813 C 363.5625 31.089844 363.285156 32.53125 363.578125 33.949219 C 363.871094 35.359375 364.695313 36.574219 365.902344 37.371094 C 367.109375 38.164063 368.550781 38.441406 369.964844 38.148438 C 371.378906 37.855469 372.597656 37.03125 373.390625 35.824219 C 374.179688 34.621094 374.457031 33.179688 374.164063 31.761719 C 373.871094 30.347656 373.046875 29.128906 371.84375 28.339844 C 370.953125 27.753906 369.933594 27.449219 368.890625 27.449219 M 368.859375 39.261719 C 367.621094 39.261719 366.410156 38.902344 365.351563 38.207031 C 363.921875 37.265625 362.945313 35.824219 362.601563 34.148438 C 362.253906 32.472656 362.578125 30.761719 363.519531 29.332031 C 364.460938 27.90625 365.902344 26.929688 367.578125 26.585938 C 369.253906 26.238281 370.964844 26.5625 372.394531 27.503906 C 373.820313 28.441406 374.796875 29.882813 375.144531 31.5625 C 375.488281 33.238281 375.164063 34.945313 374.226563 36.375 C 373.285156 37.804688 371.84375 38.78125 370.164063 39.128906 C 369.730469 39.21875 369.292969 39.261719 368.859375 39.261719 M 366.847656 23.976563 C 362.210938 25.03125 359.09375 29.703125 359.90625 34.394531 C 360.328125 36.851563 361.691406 38.972656 363.746094 40.371094 C 365.800781 41.773438 368.273438 42.269531 370.710938 41.765625 C 374.574219 40.96875 377.472656 37.800781 377.917969 33.878906 L 377.957031 33.519531 L 386.042969 31.847656 C 386.511719 31.753906 386.992188 31.867188 387.367188 32.160156 C 387.742188 32.453125 387.96875 32.894531 387.988281 33.367188 L 388.035156 34.507813 C 388.046875 34.792969 388.25 35.039063 388.511719 35.078125 C 389.402344 35.210938 390.167969 35.734375 390.621094 36.507813 C 390.730469 36.699219 390.941406 36.882813 391.207031 36.828125 L 391.675781 36.730469 C 391.941406 36.675781 392.0625 36.425781 392.089844 36.207031 C 392.238281 34.949219 393.175781 33.933594 394.421875 33.675781 C 395.664063 33.417969 396.921875 33.984375 397.558594 35.078125 C 397.667969 35.265625 397.875 35.453125 398.144531 35.394531 L 398.621094 35.296875 C 398.886719 35.242188 399.007813 34.992188 399.03125 34.773438 C 399.136719 33.882813 399.632813 33.101563 400.398438 32.628906 C 400.621094 32.488281 400.710938 32.179688 400.605469 31.910156 L 400.199219 30.847656 C 400.027344 30.40625 400.0625 29.910156 400.289063 29.492188 C 400.519531 29.074219 400.914063 28.78125 401.382813 28.683594 L 401.992188 28.558594 C 402.667969 28.417969 403.238281 28.019531 403.605469 27.433594 C 403.96875 26.847656 404.070313 26.15625 403.898438 25.484375 C 403.566406 24.226563 402.183594 23.429688 400.820313 23.714844 L 376.949219 28.640625 L 376.769531 28.328125 C 374.769531 24.832031 370.785156 23.078125 366.847656 23.976563 M 368.847656 42.957031 C 366.839844 42.957031 364.882813 42.359375 363.183594 41.199219 C 360.902344 39.644531 359.390625 37.289063 358.917969 34.566406 C 358.019531 29.359375 361.476563 24.171875 366.628906 23 C 370.867188 22.039063 375.171875 23.847656 377.449219 27.515625 L 400.617188 22.734375 C 402.492188 22.347656 404.402344 23.46875 404.863281 25.230469 C 405.109375 26.171875 404.964844 27.140625 404.453125 27.960938 C 403.941406 28.78125 403.140625 29.34375 402.195313 29.535156 L 401.585938 29.664063 C 401.402344 29.699219 401.253906 29.808594 401.167969 29.972656 C 401.078125 30.132813 401.066406 30.320313 401.132813 30.492188 L 401.539063 31.554688 C 401.816406 32.273438 401.558594 33.082031 400.925781 33.476563 C 400.429688 33.78125 400.09375 34.3125 400.027344 34.890625 C 399.945313 35.597656 399.472656 36.144531 398.824219 36.277344 L 398.347656 36.375 C 397.699219 36.507813 397.050781 36.195313 396.691406 35.578125 C 396.273438 34.855469 395.445313 34.484375 394.621094 34.65625 C 393.800781 34.824219 393.179688 35.496094 393.082031 36.324219 C 392.996094 37.03125 392.523438 37.578125 391.875 37.710938 L 391.410156 37.808594 C 390.769531 37.941406 390.113281 37.628906 389.753906 37.011719 C 389.460938 36.507813 388.941406 36.15625 388.363281 36.070313 C 387.625 35.960938 387.066406 35.316406 387.035156 34.546875 L 386.988281 33.410156 C 386.980469 33.226563 386.898438 33.0625 386.753906 32.949219 C 386.609375 32.835938 386.433594 32.792969 386.246094 32.828125 L 378.863281 34.351563 C 378.238281 38.535156 375.085938 41.886719 370.910156 42.746094 C 370.222656 42.886719 369.53125 42.957031 368.847656 42.957031 "/>
<g clip-path="url(#clip38)" clip-rule="nonzero">
<use xlink:href="#surface43" transform="matrix(1,0,0,1,340,52)" mask="url(#mask12)"/>
</g>
<g clip-path="url(#clip41)" clip-rule="nonzero">
<use xlink:href="#surface42" transform="matrix(1,0,0,1,328,64)" mask="url(#mask13)"/>
</g>
</g>
</svg>
